<svg width="97" height="105" viewBox="0 0 97 105" fill="none" xmlns="http://www.w3.org/2000/svg">
<path d="M14.6313 40.3297L16.6867 34.3744L15.2575 33.8812L13.7547 38.2351L5.78789 35.4855L5.23522 37.0868L14.6313 40.3297Z" fill="#0D2234"/>
<path d="M19.7136 29.1937L23.8453 24.1087L22.6719 23.1552L19.6084 26.9256L17.5439 25.2481L19.8658 22.3905L18.6924 21.4371L16.3705 24.2947L14.2408 22.5643L17.1189 19.0221L15.9455 18.0687L11.9991 22.9255L19.7136 29.1937Z" fill="#0D2234"/>
<path d="M30.0604 19.427L31.5147 18.5583L27.1927 11.3228L29.6446 9.85825L28.8692 8.5602L22.5472 12.3366L23.3226 13.6346L25.7384 12.1916L30.0604 19.427Z" fill="#0D2234"/>
<path d="M37.1628 9.3063L38.3954 8.98399L38.3119 5.34471L36.6866 5.76973L37.1628 9.3063Z" fill="#0D2234"/>
<path d="M49.7909 14.2196C51.3863 14.2625 53.2445 13.3882 53.3 11.331C53.3516 9.41368 51.9925 8.91492 50.3032 8.19718C49.1121 7.70294 48.4471 7.43294 48.4807 6.70558C48.5147 5.96422 49.1418 5.56096 49.9115 5.58169C50.5832 5.59978 51.3715 5.97113 52.1652 6.66475L53.2086 5.36236C52.2224 4.53752 51.1281 4.0879 49.9526 4.05624C48.2312 4.00988 46.7709 5.189 46.7291 6.74244C46.6801 8.56178 48.1595 9.27386 49.6566 9.84637C50.9041 10.3281 51.5543 10.6257 51.5309 11.4934C51.5113 12.2212 50.9387 12.6819 49.8471 12.6525C48.9934 12.6295 48.0255 12.1693 47.3351 11.2824L46.2364 12.5553C47.243 13.6608 48.5174 14.1853 49.7909 14.2196Z" fill="#0D2234"/>
<path d="M70.3703 21.6988C71.601 22.6011 73.0649 23.0669 74.2458 22.9953L76.6962 19.6535L73.3769 17.2196L72.4828 18.4389L74.4473 19.8794L73.4539 21.2342C72.6471 21.1981 71.9245 20.9287 71.281 20.4568C69.6778 19.2813 69.5557 17.3169 70.7313 15.7137C72.0062 13.975 73.9186 13.7107 75.3638 14.7704C76.267 15.4327 76.7495 16.2899 76.9053 17.2375L78.4776 17.1057C78.3044 15.5898 77.4365 14.3111 76.3188 13.4916C73.8462 11.6786 71.0389 12.311 69.3087 14.6706C67.4461 17.2109 68.0672 20.01 70.3703 21.6988Z" fill="#0D2234"/>
<path d="M78.928 31.6404C80.4553 34.0702 83.3376 34.7885 85.8978 33.1791C88.4699 31.5624 89.0605 28.6611 87.5331 26.2313C85.9461 23.7066 83.033 23.1235 80.5558 24.6807C78.0785 26.2379 77.341 29.1158 78.928 31.6404ZM80.2673 30.7985C79.2317 29.151 79.8395 27.1979 81.4871 26.1623C83.1346 25.1267 85.1581 25.4257 86.1937 27.0732C87.1697 28.6259 86.6896 30.5979 84.9591 31.6857C83.2404 32.766 81.2434 32.3512 80.2673 30.7985Z" fill="#0D2234"/>
<path d="M85.4621 38.9548L85.7811 40.1303L92.7722 38.523L92.3065 36.8071L85.4621 38.9548ZM82.4778 40.3596C82.6282 40.9135 83.1987 41.2519 83.7527 41.1015C84.3066 40.9512 84.6413 40.3671 84.491 39.8132C84.337 39.2457 83.7529 38.911 83.199 39.0613C82.645 39.2117 82.3238 39.7921 82.4778 40.3596Z" fill="#0D2234"/>
<path d="M82.7564 64.5902L80.701 70.5455L82.1302 71.0388L83.633 66.6848L91.5998 69.4344L92.1525 67.8331L82.7564 64.5902Z" fill="#0D2234"/>
<path d="M77.6741 75.7262L73.5424 80.8112L74.7158 81.7647L77.7793 77.9944L79.8438 79.6718L77.5219 82.5294L78.6953 83.4829L81.0172 80.6253L83.1468 82.3556L80.2688 85.8978L81.4422 86.8513L85.3886 81.9944L77.6741 75.7262Z" fill="#0D2234"/>
<path d="M67.3273 85.4929L65.873 86.3616L70.195 93.5971L67.7431 95.0617L68.5185 96.3597L74.8405 92.5833L74.0651 91.2853L71.6493 92.7284L67.3273 85.4929Z" fill="#0D2234"/>
<path d="M60.2249 95.6136L58.9923 95.9359L59.0757 99.5752L60.7011 99.1502L60.2249 95.6136Z" fill="#0D2234"/>
<path d="M47.5968 90.7003C46.0014 90.6574 44.1431 91.5317 44.0877 93.5889C44.0361 95.5062 45.3952 96.005 47.0845 96.7227C48.2756 97.217 48.9406 97.487 48.907 98.2143C48.873 98.9557 48.2459 99.359 47.4762 99.3382C46.8044 99.3201 46.0162 98.9488 45.2225 98.2552L44.1791 99.5576C45.1653 100.382 46.2595 100.832 47.4351 100.864C49.1565 100.91 50.6168 99.7309 50.6586 98.1775C50.7076 96.3581 49.2282 95.6461 47.7311 95.0736C46.4836 94.5918 45.8334 94.2942 45.8568 93.4265C45.8764 92.6988 46.449 92.238 47.5406 92.2674C48.3943 92.2904 49.3622 92.7506 50.0526 93.6375L51.1513 92.3646C50.1447 91.2591 48.8703 90.7346 47.5968 90.7003Z" fill="#0D2234"/>
<path d="M27.0173 83.2212C25.7867 82.3188 24.3228 81.853 23.1419 81.9246L20.6915 85.2665L24.0108 87.7003L24.9049 86.481L22.9404 85.0405L23.9338 83.6857C24.7406 83.7218 25.4632 83.9912 26.1067 84.4631C27.7099 85.6386 27.832 87.603 26.6564 89.2062C25.3815 90.9449 23.4691 91.2092 22.0239 90.1495C21.1207 89.4873 20.6382 88.63 20.4824 87.6825L18.9101 87.8143C19.0833 89.3301 19.9512 90.6088 21.0689 91.4283C23.5414 93.2413 26.3488 92.6089 28.079 90.2493C29.9416 87.709 29.3205 84.91 27.0173 83.2212Z" fill="#0D2234"/>
<path d="M18.4597 73.2795C16.9324 70.8497 14.0501 70.1315 11.4899 71.7408C8.9178 73.3576 8.32724 76.2588 9.85461 78.6887C11.4416 81.2133 14.3547 81.7964 16.8319 80.2392C19.3092 78.6821 20.0467 75.8042 18.4597 73.2795ZM17.1204 74.1214C18.156 75.769 17.5482 77.722 15.9006 78.7576C14.2531 79.7933 12.2296 79.4943 11.194 77.8467C10.2179 76.294 10.6981 74.322 12.4286 73.2342C14.1473 72.1539 16.1443 72.5687 17.1204 74.1214Z" fill="#0D2234"/>
<path d="M11.9256 65.9651L11.6066 64.7896L4.61551 66.3969L5.08123 68.1129L11.9256 65.9651ZM14.9099 64.5604C14.7595 64.0064 14.189 63.668 13.635 63.8184C13.0811 63.9687 12.7464 64.5528 12.8967 65.1068C13.0507 65.6742 13.6348 66.0089 14.1887 65.8586C14.7427 65.7082 15.0639 65.1278 14.9099 64.5604Z" fill="#0D2234"/>
<circle cx="6" cy="53" r="2" fill="#DB3A4D"/>
<circle cx="91" cy="53" r="2" fill="#DB3A4D"/>
</svg>
