<svg xmlns="http://www.w3.org/2000/svg" width="399.419" height="700.994" viewBox="0 0 399.419 700.994" fill="#122049">
  <path d="M385.758,319.316a72.012,72.012,0,0,0-7.9-9.374l-92.35-92.35,91.973-91.973A73.606,73.606,0,0,0,273.388,21.525l-144.395,144.4c-.748.748-1.447,1.5-2.222,2.349a73.578,73.578,0,0,0,2.6,101.37l95.706,95.706h0l48.687,48.691A73.29,73.29,0,0,0,325.808,435.6h.127a73.579,73.579,0,0,0,59.822-116.285m-254.19-51.874a70.465,70.465,0,0,1-2.5-97.078c.744-.811,1.415-1.541,2.12-2.245l144.395-144.4a70.5,70.5,0,1,1,99.7,99.7l-91.973,91.973L230.89,267.819a73.116,73.116,0,0,0-21.563,52.047c0,.917.023,1.83.056,2.745.01.252.023.5.035.755.035.748.081,1.5.142,2.243.012.181.025.363.04.544q.119,1.351.286,2.7c.025.215.056.427.085.642.094.721.2,1.442.319,2.16.038.236.075.469.117.7q.228,1.338.509,2.668c.021.108.046.215.073.323q.253,1.182.55,2.356c.058.244.121.486.186.728.2.771.413,1.54.64,2.3.033.115.065.231.1.346.261.865.54,1.724.832,2.579.075.223.154.446.233.669q.36,1.019.75,2.033c.079.2.154.411.238.617q.491,1.254,1.036,2.487c.069.165.148.325.221.488q.453,1.019.94,2.022l.338.69c.085.173.165.346.252.517Zm244.1,144.4a70.486,70.486,0,0,1-99.7,0L227.415,363.29c-.319-.4-.621-.821-.932-1.234-.269-.361-.55-.715-.813-1.08-.3-.423-.588-.857-.884-1.286-.256-.375-.523-.746-.773-1.126-.281-.423-.542-.857-.809-1.286-.248-.4-.507-.79-.748-1.192-.252-.423-.49-.857-.732-1.284s-.486-.832-.717-1.253-.446-.867-.671-1.3-.456-.859-.667-1.294-.4-.867-.607-1.3-.427-.894-.627-1.347c-.19-.436-.365-.882-.55-1.322-.19-.456-.388-.911-.569-1.372s-.334-.9-.5-1.355-.352-.919-.511-1.384c-.152-.444-.288-.894-.431-1.34-.156-.479-.319-.957-.465-1.44-.135-.45-.252-.9-.375-1.357-.138-.486-.281-.969-.4-1.457-.117-.457-.215-.919-.323-1.378-.115-.49-.238-.978-.342-1.47-.1-.471-.181-.948-.271-1.422s-.194-.965-.275-1.451c-.088-.515-.154-1.034-.229-1.551-.067-.448-.146-.9-.2-1.347-.071-.571-.121-1.144-.179-1.718-.04-.4-.092-.8-.125-1.2-.054-.636-.085-1.276-.125-1.914-.017-.34-.048-.68-.063-1.019q-.059-1.47-.06-2.943a70.037,70.037,0,0,1,20.65-49.85l50.227-50.225,92.35,92.348a69.04,69.04,0,0,1,7.561,8.978,70.132,70.132,0,0,1-7.561,90.722m-201.314-76.23,0,0-48.689-48.689a73.294,73.294,0,0,0-52.045-21.563h-.127A73.575,73.575,0,0,0,13.663,381.638a72.029,72.029,0,0,0,7.9,9.376l92.35,92.348L21.938,575.335a73.607,73.607,0,1,0,104.094,104.1l144.395-144.4c.753-.752,1.449-1.505,2.224-2.351a73.575,73.575,0,0,0-2.6-101.368Zm-58.24,145.556L23.76,388.815a68.751,68.751,0,0,1-7.563-8.978A70.483,70.483,0,0,1,73.485,268.463h.121a70.194,70.194,0,0,1,49.852,20.652l48.549,48.549c.319.407.621.823.93,1.234.269.361.55.717.813,1.082.3.423.59.857.886,1.284.256.377.523.746.771,1.128.279.423.542.857.811,1.286.248.4.507.79.746,1.192.254.423.49.855.732,1.284s.488.83.717,1.253.448.867.671,1.3.457.857.667,1.292.4.869.607,1.3.427.892.627,1.345.367.882.55,1.324.39.911.571,1.372.334.9.5,1.355.35.919.511,1.384c.152.444.288.894.432,1.34.156.48.319.957.465,1.438.133.45.25.907.375,1.359.135.486.279.967.4,1.457.117.457.215.917.323,1.376.115.49.238.978.34,1.472.1.471.183.946.273,1.422s.194.965.275,1.451c.088.515.154,1.034.229,1.549.067.45.142.9.2,1.349.071.571.121,1.144.179,1.718.042.4.094.8.127,1.2.054.638.085,1.278.123,1.916.019.34.05.677.063,1.017q.063,1.47.063,2.943a70.039,70.039,0,0,1-20.652,49.85Zm154.244,49.427c-.742.809-1.415,1.536-2.122,2.243l-144.395,144.4a70.486,70.486,0,0,1-99.7,0,70.483,70.483,0,0,1,0-99.7l91.973-91.973,52.424-52.424A73.126,73.126,0,0,0,190.1,381.088c0-.915-.023-1.83-.056-2.743-.01-.252-.023-.5-.035-.755-.035-.75-.083-1.5-.142-2.245-.015-.179-.025-.361-.04-.542q-.119-1.354-.286-2.7c-.029-.215-.058-.429-.088-.642-.094-.723-.2-1.443-.319-2.162-.038-.233-.073-.469-.115-.7-.154-.892-.321-1.782-.509-2.668-.023-.108-.048-.217-.073-.325q-.256-1.182-.55-2.353c-.06-.244-.123-.486-.185-.73q-.3-1.157-.64-2.3c-.033-.117-.065-.231-.1-.348-.261-.865-.54-1.724-.832-2.579-.075-.223-.156-.444-.233-.667q-.36-1.022-.75-2.032c-.079-.206-.156-.413-.24-.617q-.494-1.254-1.034-2.489c-.071-.163-.148-.323-.221-.488q-.453-1.016-.94-2.02c-.113-.231-.225-.461-.34-.692-.083-.171-.165-.344-.252-.515l85.738,85.738a70.468,70.468,0,0,1,2.5,97.08"/>
</svg>
