<svg width="25" height="25" viewBox="0 0 25 25" fill="none" xmlns="http://www.w3.org/2000/svg">
  <path d="M15.3001 4.9C17.5001 5.3 19.2 7.1 19.7 9.3M15.3001 0.5C19.9001 1 23.6 4.7 24.1 9.3M23 18.1V21.4C23 22.6 22.0001 23.6 20.8001 23.6C20.7001 23.6 20.7 23.6 20.6 23.6C17.2 23.2 13.9 22.1 11.1 20.2C8.40002 18.5 6.20002 16.2 4.50002 13.6C2.60002 10.7 1.5 7.4 1.1 4C0.999999 2.8 1.9 1.7 3.1 1.6C3.2 1.6 3.20001 1.6 3.30001 1.6H6.6C7.7 1.6 8.70001 2.4 8.80001 3.5C8.90001 4.6 9.2 5.6 9.6 6.6C9.9 7.4 9.7 8.3 9.1 8.9L7.69997 10.3C9.29997 13.1 11.6001 15.4 14.3001 16.9L15.7 15.5C16.3 14.9 17.2 14.7 18 15C19 15.4 20 15.6 21.1 15.8C22.2 16 23 17 23 18.1Z" stroke="#ffffff" stroke-linecap="round" stroke-linejoin="round"/>
</svg>
