<?xml version="1.0" encoding="utf-8"?>
<!-- Generator: Adobe Illustrator 27.5.0, SVG Export Plug-In . SVG Version: 6.00 Build 0)  -->
<svg version="1.1" xmlns="http://www.w3.org/2000/svg" xmlns:xlink="http://www.w3.org/1999/xlink" x="0px" y="0px"
	 viewBox="0 0 500 500" style="enable-background:new 0 0 500 500;" xml:space="preserve">
<g id="Background_Complete">
	<rect x="416.779" y="398.494" style="fill:#EBEBEB;" width="33.122" height="0.25"/>
	<rect x="322.527" y="401.208" style="fill:#EBEBEB;" width="8.693" height="0.25"/>
	<rect x="396.586" y="389.208" style="fill:#EBEBEB;" width="19.192" height="0.25"/>
	<rect x="52.459" y="390.888" style="fill:#EBEBEB;" width="43.193" height="0.25"/>
	<rect x="104.556" y="390.888" style="fill:#EBEBEB;" width="6.333" height="0.25"/>
	<rect x="131.471" y="395.111" style="fill:#EBEBEB;" width="93.676" height="0.25"/>
	<g>
		<path style="fill:#EBEBEB;" d="M238.401,337.8H45.302c-3.147,0-5.708-2.561-5.708-5.708V60.66c0-3.147,2.561-5.708,5.708-5.708
			h193.099c3.146,0,5.707,2.561,5.707,5.708v271.432C244.108,335.239,241.547,337.8,238.401,337.8z M45.302,55.203
			c-3.01,0-5.458,2.448-5.458,5.458v271.432c0,3.01,2.448,5.458,5.458,5.458h193.099c3.009,0,5.457-2.448,5.457-5.458V60.66
			c0-3.009-2.448-5.458-5.457-5.458H45.302z"/>
		<path style="fill:#EBEBEB;" d="M454.698,337.8H261.599c-3.146,0-5.707-2.561-5.707-5.708V60.66c0-3.147,2.561-5.708,5.707-5.708
			h193.099c3.148,0,5.708,2.561,5.708,5.708v271.432C460.406,335.239,457.845,337.8,454.698,337.8z M261.599,55.203
			c-3.009,0-5.457,2.448-5.457,5.458v271.432c0,3.01,2.448,5.458,5.457,5.458h193.099c3.01,0,5.458-2.448,5.458-5.458V60.66
			c0-3.009-2.448-5.458-5.458-5.458H261.599z"/>
	</g>
	<g>
		<g>
			
				<rect x="63.131" y="235.68" transform="matrix(0.8713 -0.4907 0.4907 0.8713 -107.8757 64.1098)" style="fill:#E0E0E0;" width="10.331" height="4.109"/>
			<rect x="87.032" y="285.074" style="fill:#E0E0E0;" width="6.618" height="11.331"/>
			<g>
				<path style="fill:#EBEBEB;" d="M95.879,286.491l-4.807,2.921c-2.357,1.432-5.434,0.588-6.73-1.847l-23.341-43.839
					c-1.196-2.247-0.431-5.037,1.745-6.359v0c2.176-1.322,5.005-0.715,6.447,1.382l28.149,40.918
					C98.905,281.94,98.237,285.059,95.879,286.491z"/>
			</g>
			<g>
				<path style="fill:#EBEBEB;" d="M70.182,239.623l-1.738-4.325c-0.442-1.099,0.123-2.345,1.241-2.737l48.969-17.168
					c1.049-0.368,2.202,0.155,2.617,1.187l0,0c0.415,1.032-0.056,2.207-1.068,2.667L72.972,240.74
					C71.894,241.231,70.624,240.723,70.182,239.623z"/>
			</g>
			<g>
				<g>
					<path style="fill:#E6E6E6;" d="M121.375,218.325L121.375,218.325c-1.929-0.497-3.252-2.269-3.181-4.26l0.213-5.96l0.566-2.033
						l3.345-5.138c0.512-0.787,1.594-0.956,2.323-0.363l0,0l-2.594,6.865l-0.342,1.327l-0.17,5.414
						c-0.013,0.418,0.266,0.79,0.671,0.895l0,0c0.405,0.104,0.829-0.086,1.02-0.459l2.468-4.822l0.342-1.327l1.047-7.264l0,0
						c0.921-0.167,1.782,0.507,1.841,1.442l0.409,6.48l-0.566,2.033l-2.557,4.995C125.305,217.917,123.297,218.82,121.375,218.325z"
						/>
				</g>
			</g>
			<g style="opacity:0.7;">
				<path style="fill:#FFFFFF;" d="M91.116,277.76c-0.604-0.338-1.3-0.533-2.042-0.533c-2.314,0-4.19,1.876-4.19,4.19
					c0,0.742,0.194,1.437,0.533,2.041L91.116,277.76z"/>
				<path style="fill:#FFFFFF;" d="M87.032,285.074c0.604,0.338,1.3,0.533,2.042,0.533c2.314,0,4.19-1.876,4.19-4.19
					c0-0.742-0.194-1.437-0.533-2.042L87.032,285.074z"/>
			</g>
			<g style="opacity:0.7;">
				<path style="fill:#FFFFFF;" d="M75.477,233.313c-0.317-0.269-0.704-0.463-1.141-0.548c-1.363-0.266-2.683,0.623-2.949,1.986
					c-0.085,0.437-0.051,0.869,0.079,1.263L75.477,233.313z"/>
				<path style="fill:#FFFFFF;" d="M72.231,237.151c0.317,0.269,0.704,0.463,1.141,0.549c1.363,0.266,2.683-0.623,2.949-1.986
					c0.085-0.437,0.051-0.869-0.079-1.263L72.231,237.151z"/>
			</g>
		</g>
		<g>
			<g>
				<g>
					<rect x="83.373" y="357.416" style="fill:#E0E0E0;" width="13.966" height="7.693"/>
					<g>
						<path style="fill:#F0F0F0;" d="M126.075,382.648H54.637l1.65-7.943c1.483-7.138,7.772-12.254,15.062-12.254h38.013
							c7.29,0,13.579,5.117,15.062,12.254L126.075,382.648z"/>
					</g>
					<path style="fill:#EBEBEB;" d="M93.495,359.094h-7.566c-6.102,0-10.944-4.042-10.584-8.834l3.783-50.391
						c0.331-4.409,4.971-7.85,10.585-7.85l0,0c5.613,0,10.254,3.442,10.584,7.85l3.783,50.391
						C104.44,355.053,99.597,359.094,93.495,359.094z"/>
					<g style="opacity:0.7;">
						<path style="fill:#FFFFFF;" d="M92.561,341.797c-0.888-0.497-1.909-0.782-2.999-0.782c-3.399,0-6.155,2.755-6.155,6.155
							c0,1.089,0.286,2.111,0.782,2.999L92.561,341.797z"/>
						<path style="fill:#FFFFFF;" d="M86.563,352.542c0.888,0.497,1.909,0.782,2.999,0.782c3.399,0,6.155-2.755,6.155-6.155
							c0-1.09-0.286-2.111-0.782-2.999L86.563,352.542z"/>
					</g>
				</g>
				<g>
					<circle style="fill:#F0F0F0;" cx="430.094" cy="309.604" r="19.549"/>
					<g>
						<g>
							<path style="fill:#FFFFFF;" d="M430.149,329.588c-11.021,0-19.988-8.967-19.988-19.989c0-11.022,8.967-19.989,19.988-19.989
								v0.88c-10.537,0-19.109,8.572-19.109,19.109c0,10.537,8.572,19.109,19.109,19.109V329.588z"/>
						</g>
						<g>
							<g>
								<g>
									<path style="fill:#FFFFFF;" d="M430.149,329.588v-0.88c10.537,0,19.109-8.572,19.109-19.109
										c0-10.537-8.573-19.109-19.109-19.109v-0.88c11.022,0,19.989,8.967,19.989,19.989
										C450.138,320.621,441.172,329.588,430.149,329.588z"/>
								</g>
								<g>
									<g>
										<path style="fill:#FFFFFF;" d="M440.364,309.604h-0.88c0-6.479-3.288-15.147-9.572-19.179l0.474-0.741
											C436.937,293.887,440.364,302.886,440.364,309.604z"/>
									</g>
									<g>
										<path style="fill:#FFFFFF;" d="M430.387,328.927l-0.474-0.741c6.284-4.032,9.572-12.7,9.572-19.179h0.88
											C440.364,315.725,436.937,324.724,430.387,328.927z"/>
									</g>
								</g>
								<g>
									<g>
										<path style="fill:#FFFFFF;" d="M420.815,309.6h-0.88c0-6.718,3.427-15.717,9.976-19.92l0.476,0.741
											C424.103,294.453,420.815,303.121,420.815,309.6z"/>
									</g>
									<g>
										<path style="fill:#FFFFFF;" d="M429.911,328.922c-6.549-4.203-9.976-13.202-9.976-19.919h0.88
											c0,6.478,3.288,15.147,9.572,19.179L429.911,328.922z"/>
									</g>
								</g>
								<g>
									<rect x="429.71" y="290.05" style="fill:#FFFFFF;" width="0.88" height="39.098"/>
								</g>
							</g>
						</g>
						<g>
							<g>
								<rect x="413.603" y="298.746" style="fill:#FFFFFF;" width="33.095" height="0.88"/>
							</g>
							<g>
								<rect x="410.609" y="309.493" style="fill:#FFFFFF;" width="39.081" height="0.88"/>
							</g>
							<g>
								<rect x="414.04" y="320.23" style="fill:#FFFFFF;" width="32.22" height="0.88"/>
							</g>
						</g>
					</g>
				</g>
			</g>
			<g>
				<g>
					<path style="fill:#F0F0F0;" d="M83.94,79.475c-0.597-0.542-1.224-1.031-1.87-1.476l0.774-3.308
						c-0.827-0.501-1.68-0.937-2.553-1.313l-2.238,2.55c-1.508-0.546-3.072-0.878-4.648-1.002l-0.982-3.247
						c-0.959-0.019-1.917,0.028-2.87,0.139l-0.663,3.327c-1.557,0.276-3.081,0.759-4.529,1.448l-2.474-2.321
						c-0.832,0.459-1.639,0.975-2.414,1.554l1.091,3.217c-0.6,0.506-1.176,1.053-1.718,1.651c-0.542,0.597-1.03,1.223-1.476,1.869
						l-3.308-0.774c-0.501,0.827-0.937,1.68-1.313,2.553l2.55,2.238c-0.546,1.508-0.878,3.072-1.002,4.648l-3.247,0.983
						c-0.019,0.959,0.028,1.917,0.139,2.87l3.327,0.663c0.276,1.557,0.759,3.081,1.448,4.529l-2.321,2.475
						c0.458,0.832,0.975,1.639,1.554,2.413l3.218-1.091c0.506,0.6,1.053,1.176,1.651,1.717c0.597,0.542,1.223,1.031,1.869,1.476
						l-0.774,3.308c0.827,0.501,1.68,0.937,2.553,1.313l2.238-2.55c1.508,0.546,3.072,0.878,4.648,1.002l0.982,3.247
						c0.959,0.019,1.917-0.028,2.87-0.14l0.663-3.327c1.557-0.276,3.081-0.758,4.529-1.448l2.474,2.321
						c0.832-0.459,1.639-0.975,2.413-1.554l-1.091-3.217c0.6-0.506,1.176-1.053,1.718-1.651c0.542-0.597,1.031-1.223,1.476-1.87
						l3.308,0.774c0.501-0.827,0.937-1.68,1.313-2.553l-2.55-2.238c0.546-1.508,0.878-3.072,1.002-4.648l3.247-0.982
						c0.019-0.959-0.028-1.917-0.139-2.87l-3.327-0.663c-0.276-1.557-0.759-3.081-1.448-4.529l2.321-2.474
						c-0.459-0.832-0.975-1.639-1.554-2.413l-3.217,1.091C85.085,80.593,84.537,80.017,83.94,79.475z M79.38,99.516
						c-3.586,3.953-9.697,4.25-13.65,0.664c-3.953-3.586-4.25-9.697-0.664-13.65c3.586-3.953,9.697-4.25,13.65-0.664
						C82.669,89.452,82.966,95.563,79.38,99.516z"/>
				</g>
				<g>
					<path style="fill:#F0F0F0;" d="M113.676,86.383c-0.301-0.273-0.614-0.525-0.935-0.759l0.854-3.653
						c-0.452-0.264-0.914-0.5-1.385-0.712l-2.474,2.819c-0.767-0.256-1.555-0.425-2.351-0.508l-1.086-3.589
						c-0.52-0.002-1.04,0.023-1.557,0.076l-0.733,3.677c-0.783,0.16-1.551,0.405-2.29,0.734l-2.735-2.566
						c-0.448,0.256-0.886,0.536-1.31,0.843l1.205,3.553c-0.297,0.264-0.584,0.545-0.857,0.846c-0.273,0.301-0.525,0.614-0.759,0.935
						l-3.653-0.854c-0.264,0.452-0.5,0.914-0.712,1.385l2.819,2.474c-0.256,0.767-0.425,1.555-0.508,2.351l-3.589,1.086
						c-0.002,0.52,0.023,1.039,0.076,1.557l3.677,0.733c0.16,0.783,0.405,1.551,0.733,2.29l-2.565,2.735
						c0.256,0.448,0.536,0.886,0.843,1.31l3.553-1.205c0.264,0.297,0.545,0.584,0.846,0.857c0.301,0.273,0.614,0.525,0.935,0.759
						l-0.854,3.653c0.452,0.264,0.914,0.5,1.385,0.712l2.473-2.819c0.767,0.256,1.556,0.425,2.351,0.508l1.086,3.589
						c0.52,0.002,1.04-0.023,1.557-0.076l0.733-3.677c0.783-0.16,1.551-0.405,2.29-0.733l2.735,2.566
						c0.448-0.256,0.886-0.536,1.31-0.843l-1.205-3.553c0.297-0.264,0.584-0.545,0.857-0.846c0.273-0.301,0.525-0.614,0.759-0.935
						l3.653,0.854c0.264-0.452,0.5-0.914,0.712-1.385l-2.819-2.474c0.256-0.767,0.425-1.556,0.508-2.351l3.589-1.086
						c0.002-0.52-0.023-1.04-0.076-1.557l-3.677-0.733c-0.16-0.783-0.405-1.551-0.733-2.29l2.565-2.735
						c-0.256-0.448-0.536-0.886-0.843-1.31l-3.553,1.205C114.258,86.943,113.977,86.656,113.676,86.383z M111.08,98.99
						c-2.43,2.678-6.571,2.88-9.25,0.45c-2.678-2.43-2.88-6.571-0.45-9.25c2.43-2.679,6.572-2.88,9.25-0.45
						C113.308,92.17,113.51,96.312,111.08,98.99z"/>
					<path style="opacity:0.5;fill:#F0F0F0;" d="M113.676,86.383c-0.301-0.273-0.614-0.525-0.935-0.759l0.854-3.653
						c-0.452-0.264-0.914-0.5-1.385-0.712l-2.474,2.819c-0.767-0.256-1.555-0.425-2.351-0.508l-1.086-3.589
						c-0.52-0.002-1.04,0.023-1.557,0.076l-0.733,3.677c-0.783,0.16-1.551,0.405-2.29,0.734l-2.735-2.566
						c-0.448,0.256-0.886,0.536-1.31,0.843l1.205,3.553c-0.297,0.264-0.584,0.545-0.857,0.846c-0.273,0.301-0.525,0.614-0.759,0.935
						l-3.653-0.854c-0.264,0.452-0.5,0.914-0.712,1.385l2.819,2.474c-0.256,0.767-0.425,1.555-0.508,2.351l-3.589,1.086
						c-0.002,0.52,0.023,1.039,0.076,1.557l3.677,0.733c0.16,0.783,0.405,1.551,0.733,2.29l-2.565,2.735
						c0.256,0.448,0.536,0.886,0.843,1.31l3.553-1.205c0.264,0.297,0.545,0.584,0.846,0.857c0.301,0.273,0.614,0.525,0.935,0.759
						l-0.854,3.653c0.452,0.264,0.914,0.5,1.385,0.712l2.473-2.819c0.767,0.256,1.556,0.425,2.351,0.508l1.086,3.589
						c0.52,0.002,1.04-0.023,1.557-0.076l0.733-3.677c0.783-0.16,1.551-0.405,2.29-0.733l2.735,2.566
						c0.448-0.256,0.886-0.536,1.31-0.843l-1.205-3.553c0.297-0.264,0.584-0.545,0.857-0.846c0.273-0.301,0.525-0.614,0.759-0.935
						l3.653,0.854c0.264-0.452,0.5-0.914,0.712-1.385l-2.819-2.474c0.256-0.767,0.425-1.556,0.508-2.351l3.589-1.086
						c0.002-0.52-0.023-1.04-0.076-1.557l-3.677-0.733c-0.16-0.783-0.405-1.551-0.733-2.29l2.565-2.735
						c-0.256-0.448-0.536-0.886-0.843-1.31l-3.553,1.205C114.258,86.943,113.977,86.656,113.676,86.383z M111.08,98.99
						c-2.43,2.678-6.571,2.88-9.25,0.45c-2.678-2.43-2.88-6.571-0.45-9.25c2.43-2.679,6.572-2.88,9.25-0.45
						C113.308,92.17,113.51,96.312,111.08,98.99z"/>
				</g>
				<g>
					<path style="fill:#F0F0F0;" d="M437.155,84.425c-0.301-0.273-0.613-0.525-0.935-0.759l0.854-3.653
						c-0.452-0.264-0.914-0.5-1.385-0.712l-2.474,2.819c-0.767-0.255-1.555-0.425-2.351-0.508l-1.086-3.588
						c-0.52-0.003-1.039,0.023-1.557,0.076l-0.733,3.677c-0.783,0.16-1.551,0.405-2.29,0.733l-2.735-2.565
						c-0.448,0.256-0.886,0.536-1.31,0.843l1.205,3.553c-0.297,0.264-0.584,0.545-0.857,0.846c-0.273,0.301-0.525,0.614-0.759,0.935
						l-3.653-0.854c-0.264,0.452-0.5,0.914-0.712,1.385l2.819,2.474c-0.255,0.767-0.425,1.555-0.508,2.351l-3.589,1.086
						c-0.002,0.52,0.023,1.039,0.076,1.557l3.677,0.733c0.159,0.783,0.405,1.551,0.733,2.29l-2.565,2.735
						c0.256,0.448,0.536,0.886,0.843,1.31l3.553-1.205c0.264,0.297,0.545,0.584,0.846,0.857c0.301,0.273,0.614,0.525,0.935,0.759
						l-0.854,3.653c0.452,0.264,0.915,0.5,1.385,0.712l2.474-2.819c0.767,0.256,1.556,0.425,2.351,0.508l1.086,3.589
						c0.52,0.002,1.04-0.023,1.557-0.076l0.733-3.677c0.783-0.16,1.551-0.405,2.29-0.733l2.735,2.565
						c0.448-0.256,0.886-0.536,1.31-0.843l-1.205-3.553c0.297-0.264,0.584-0.545,0.857-0.846c0.273-0.301,0.525-0.614,0.759-0.935
						l3.653,0.854c0.264-0.452,0.5-0.914,0.712-1.385l-2.819-2.473c0.255-0.767,0.425-1.556,0.508-2.351l3.589-1.086
						c0.002-0.52-0.023-1.04-0.076-1.557l-3.677-0.733c-0.16-0.783-0.405-1.551-0.733-2.29l2.565-2.735
						c-0.256-0.448-0.536-0.886-0.843-1.31l-3.553,1.205C437.737,84.985,437.456,84.698,437.155,84.425z M434.559,97.032
						c-2.43,2.678-6.571,2.88-9.25,0.45c-2.678-2.43-2.88-6.571-0.45-9.25c2.43-2.679,6.571-2.88,9.25-0.45
						C436.788,90.212,436.989,94.354,434.559,97.032z"/>
					<path style="opacity:0.5;fill:#F0F0F0;" d="M437.155,84.425c-0.301-0.273-0.613-0.525-0.935-0.759l0.854-3.653
						c-0.452-0.264-0.914-0.5-1.385-0.712l-2.474,2.819c-0.767-0.255-1.555-0.425-2.351-0.508l-1.086-3.588
						c-0.52-0.003-1.039,0.023-1.557,0.076l-0.733,3.677c-0.783,0.16-1.551,0.405-2.29,0.733l-2.735-2.565
						c-0.448,0.256-0.886,0.536-1.31,0.843l1.205,3.553c-0.297,0.264-0.584,0.545-0.857,0.846c-0.273,0.301-0.525,0.614-0.759,0.935
						l-3.653-0.854c-0.264,0.452-0.5,0.914-0.712,1.385l2.819,2.474c-0.255,0.767-0.425,1.555-0.508,2.351l-3.589,1.086
						c-0.002,0.52,0.023,1.039,0.076,1.557l3.677,0.733c0.159,0.783,0.405,1.551,0.733,2.29l-2.565,2.735
						c0.256,0.448,0.536,0.886,0.843,1.31l3.553-1.205c0.264,0.297,0.545,0.584,0.846,0.857c0.301,0.273,0.614,0.525,0.935,0.759
						l-0.854,3.653c0.452,0.264,0.915,0.5,1.385,0.712l2.474-2.819c0.767,0.256,1.556,0.425,2.351,0.508l1.086,3.589
						c0.52,0.002,1.04-0.023,1.557-0.076l0.733-3.677c0.783-0.16,1.551-0.405,2.29-0.733l2.735,2.565
						c0.448-0.256,0.886-0.536,1.31-0.843l-1.205-3.553c0.297-0.264,0.584-0.545,0.857-0.846c0.273-0.301,0.525-0.614,0.759-0.935
						l3.653,0.854c0.264-0.452,0.5-0.914,0.712-1.385l-2.819-2.473c0.255-0.767,0.425-1.556,0.508-2.351l3.589-1.086
						c0.002-0.52-0.023-1.04-0.076-1.557l-3.677-0.733c-0.16-0.783-0.405-1.551-0.733-2.29l2.565-2.735
						c-0.256-0.448-0.536-0.886-0.843-1.31l-3.553,1.205C437.737,84.985,437.456,84.698,437.155,84.425z M434.559,97.032
						c-2.43,2.678-6.571,2.88-9.25,0.45c-2.678-2.43-2.88-6.571-0.45-9.25c2.43-2.679,6.571-2.88,9.25-0.45
						C436.788,90.212,436.989,94.354,434.559,97.032z"/>
				</g>
			</g>
		</g>
	</g>
	<rect y="382.398" style="fill:#EBEBEB;" width="500" height="0.25"/>
</g>
<g id="Background_Simple" style="display:none;">
	<g style="display:inline;">
		<g>
			<path style="fill:#e50d0e;" d="M156.068,74.294c-26.154,11.939-35.955,35.621-31.232,58.798
				c3.277,16.078,14.956,31.111,11.878,47.226c-1.893,9.908-4.006,19.557-11.943,26.054c-7.936,6.497-16.849,11.936-23.908,19.325
				c-13.287,13.908-18.735,34.472-14.007,52.875s14.327,32.563,32.787,38.787c13.412,4.523,27.977,4.218,41.979,6.507
				c14.002,2.289,28.754,8.244,35.118,20.563c10.012,19.381,38.979,24.697,59.849,16.964c10.761-3.987,19.929-11.135,30.105-16.372
				c10.176-5.238,22.537-8.516,33.128-4.121c16.627,6.9,35.724,12.54,52.221,5.353c16.497-7.187,28.911-22.596,32.118-39.868
				c7.177-38.653-36.056-81.281-26.737-119.501c4.801-19.689,28.052-30.567,31.974-50.439c4.824-24.44-11.429-49.679-34.052-61.389
				c-22.623-11.71-49.981-11.852-75.008-6.446c-23.662,5.111-47.374,14.941-71.254,10.893
				C229.085,79.503,188.736,59.382,156.068,74.294z"/>
		</g>
		<g style="opacity:0.9;">
			<path style="fill:#FFFFFF;" d="M156.068,74.294c-26.154,11.939-35.955,35.621-31.232,58.798
				c3.277,16.078,14.956,31.111,11.878,47.226c-1.893,9.908-4.006,19.557-11.943,26.054c-7.936,6.497-16.849,11.936-23.908,19.325
				c-13.287,13.908-18.735,34.472-14.007,52.875s14.327,32.563,32.787,38.787c13.412,4.523,27.977,4.218,41.979,6.507
				c14.002,2.289,28.754,8.244,35.118,20.563c10.012,19.381,38.979,24.697,59.849,16.964c10.761-3.987,19.929-11.135,30.105-16.372
				c10.176-5.238,22.537-8.516,33.128-4.121c16.627,6.9,35.724,12.54,52.221,5.353c16.497-7.187,28.911-22.596,32.118-39.868
				c7.177-38.653-36.056-81.281-26.737-119.501c4.801-19.689,28.052-30.567,31.974-50.439c4.824-24.44-11.429-49.679-34.052-61.389
				c-22.623-11.71-49.981-11.852-75.008-6.446c-23.662,5.111-47.374,14.941-71.254,10.893
				C229.085,79.503,188.736,59.382,156.068,74.294z"/>
		</g>
	</g>
</g>
<g id="Shadow">
	<ellipse id="_x3C_Path_x3E__359_" style="fill:#F5F5F5;" cx="250" cy="415.693" rx="193.889" ry="11.323"/>
</g>
<g id="Chemistry">
	<g>
		<g>
			<g>
				<path style="fill:#e50d0e;" d="M389.272,181.781l-3.151,1.436c-0.95,0.433-1.37,1.554-0.937,2.504l0.012,0.026
					c0.302,0.663,0.941,1.059,1.621,1.096l12.639,27.738c0.498,1.092,1.786,1.574,2.878,1.076l0.779-0.355
					c1.092-0.498,1.574-1.786,1.076-2.878l-12.639-27.738c0.419-0.538,0.539-1.279,0.237-1.942l-0.012-0.026
					C391.343,181.767,390.222,181.348,389.272,181.781z"/>
				<path style="opacity:0.6;fill:#FFFFFF;" d="M389.272,181.781l-3.151,1.436c-0.95,0.433-1.37,1.554-0.937,2.504l0.012,0.026
					c0.302,0.663,0.941,1.059,1.621,1.096l12.639,27.738c0.498,1.092,1.786,1.574,2.878,1.076l0.779-0.355
					c1.092-0.498,1.574-1.786,1.076-2.878l-12.639-27.738c0.419-0.538,0.539-1.279,0.237-1.942l-0.012-0.026
					C391.343,181.767,390.222,181.348,389.272,181.781z"/>
				<path style="fill:#e50d0e;" d="M385.232,184.076c0.433,0.11,1.573-0.182,2.838-0.758c1.265-0.576,2.233-1.245,2.434-1.644
					c-0.398-0.098-0.83-0.076-1.232,0.108l-3.15,1.436C385.719,183.4,385.419,183.71,385.232,184.076z"/>
				<g>
					<path style="fill:#e50d0e;" d="M395.119,198.788c-0.815,0.371-1.567,0.461-1.702,0.209l6.918,15.183
						c0.276,0.605,0.993,0.873,1.599,0.597l0.779-0.355c0.606-0.276,0.874-0.993,0.598-1.599l-6.918-15.183
						C396.496,197.908,395.934,198.417,395.119,198.788z"/>
					<g>
						<path style="fill:#e50d0e;" d="M396.395,197.63c0.12,0.264-0.451,0.783-1.276,1.158c-0.825,0.376-1.591,0.467-1.711,0.203
							c-0.12-0.264,0.451-0.783,1.276-1.158C395.509,197.457,396.275,197.366,396.395,197.63z"/>
						<path style="opacity:0.3;" d="M396.395,197.63c0.12,0.264-0.451,0.783-1.276,1.158c-0.825,0.376-1.591,0.467-1.711,0.203
							c-0.12-0.264,0.451-0.783,1.276-1.158C395.509,197.457,396.275,197.366,396.395,197.63z"/>
					</g>
				</g>
			</g>
			<g style="opacity:0.8;">
				<path style="fill:#FFFFFF;" d="M387.767,186.653c4.182,9.179,8.365,18.358,12.548,27.537c0.258,0.565,1.137,0.166,0.879-0.4
					c-4.183-9.179-8.365-18.358-12.548-27.537C388.388,185.687,387.509,186.086,387.767,186.653L387.767,186.653z"/>
			</g>
		</g>
		<g>
			<g>
				<g>
					<g>
						<path style="fill:#e50d0e;" d="M425.263,224.485c-0.665-4.609-4.207-8.357-8.664-9.449v-12.957
							c1.041-0.251,1.818-1.182,1.818-2.301v-0.036c0-1.31-1.062-2.373-2.373-2.373H411.7c-1.31,0-2.373,1.062-2.373,2.373v0.036
							c0,1.118,0.777,2.05,1.818,2.301v12.94c-5.041,1.226-8.787,5.759-8.787,11.177c0,3.874,1.916,7.296,4.849,9.382
							c0.76,0.54,1.677,0.82,2.61,0.82h8.112c0.925,0,1.837-0.273,2.592-0.808C423.89,233.204,425.922,229.057,425.263,224.485z"/>
						<path style="fill:#e50d0e;" d="M425.263,224.485c-0.665-4.609-4.207-8.357-8.664-9.449v-12.957
							c1.041-0.251,1.818-1.182,1.818-2.301v-0.036c0-1.31-1.062-2.373-2.373-2.373H411.7c-1.31,0-2.373,1.062-2.373,2.373v0.036
							c0,1.118,0.777,2.05,1.818,2.301v12.94c-5.041,1.226-8.787,5.759-8.787,11.177c0,3.874,1.916,7.296,4.849,9.382
							c0.76,0.54,1.677,0.82,2.61,0.82h8.112c0.925,0,1.837-0.273,2.592-0.808C423.89,233.204,425.922,229.057,425.263,224.485z"/>
						<path style="opacity:0.7;fill:#FFFFFF;" d="M425.263,224.485c-0.665-4.609-4.207-8.357-8.664-9.449v-12.957
							c1.041-0.251,1.818-1.182,1.818-2.301v-0.036c0-1.31-1.062-2.373-2.373-2.373H411.7c-1.31,0-2.373,1.062-2.373,2.373v0.036
							c0,1.118,0.777,2.05,1.818,2.301v12.94c-5.041,1.226-8.787,5.759-8.787,11.177c0,3.874,1.916,7.296,4.849,9.382
							c0.76,0.54,1.677,0.82,2.61,0.82h8.112c0.925,0,1.837-0.273,2.592-0.808C423.89,233.204,425.922,229.057,425.263,224.485z"/>
					</g>
					<path style="fill:#e50d0e;" d="M410.237,197.889c0.438,0.351,1.892,0.611,3.636,0.611c1.745,0,3.199-0.26,3.636-0.611
						c-0.404-0.32-0.908-0.518-1.464-0.518H411.7C411.145,197.371,410.641,197.569,410.237,197.889z"/>
					<path style="fill:#e50d0e;" d="M424.065,224.66c-0.193-1.335-0.681-2.584-1.363-3.713c-0.12,0.655-4.022,1.18-8.829,1.18
						c-4.839,0-8.764-0.533-8.833-1.193c-0.926,1.553-1.468,3.349-1.468,5.263c0,3.324,1.622,6.461,4.339,8.394
						c0.54,0.383,1.218,0.595,1.908,0.595h8.112c0.698,0,1.352-0.202,1.891-0.586C423,232.35,424.625,228.54,424.065,224.66z"/>
					<g>
						<path style="fill:#e50d0e;" d="M422.713,220.916c0,0.669-3.958,1.211-8.84,1.211c-4.882,0-8.84-0.542-8.84-1.211
							c0-0.669,3.958-1.211,8.84-1.211C418.755,219.705,422.713,220.247,422.713,220.916z"/>
						<path style="opacity:0.2;" d="M422.713,220.916c0,0.669-3.958,1.211-8.84,1.211c-4.882,0-8.84-0.542-8.84-1.211
							c0-0.669,3.958-1.211,8.84-1.211C418.755,219.705,422.713,220.247,422.713,220.916z"/>
					</g>
				</g>
				<path style="opacity:0.5;fill:#FFFFFF;" d="M404.692,226.469c0,0,2.044,7.719,5.291,7.245
					C413.232,233.241,407.67,230.653,404.692,226.469z"/>
			</g>
		</g>
	</g>
</g>
<g id="Device">
	<g>
		<g>
			<path style="fill:#e50d0e;" d="M402.272,113.969c-0.942,3.1-16.233,1.198-34.154-4.249
				c-17.921-5.447-31.684-12.375-30.742-15.475c0.942-3.1,16.233-1.198,34.154,4.249C389.45,103.94,403.214,110.868,402.272,113.969
				z"/>
			<path style="opacity:0.8;fill:#FFFFFF;" d="M402.272,113.969c-0.942,3.1-16.233,1.198-34.154-4.249
				c-17.921-5.447-31.684-12.375-30.742-15.475c0.942-3.1,16.233-1.198,34.154,4.249C389.45,103.94,403.214,110.868,402.272,113.969
				z"/>
		</g>
		<g>
			<path style="fill:none;stroke:#263238;stroke-miterlimit:10;" d="M357.033,109.73l-4.301,10.884
				c-0.386,0.978,0.686,1.89,1.589,1.351l0,0c0.206-0.123,0.367-0.31,0.457-0.533l4.623-11.43L357.033,109.73z"/>
			<path style="fill:none;stroke:#263238;stroke-miterlimit:10;" d="M377.425,115.928l-2.483,11.436
				c-0.223,1.027-1.621,1.188-2.072,0.238l0,0c-0.103-0.217-0.132-0.462-0.083-0.697l2.519-12.069L377.425,115.928z"/>
			<g>
				<g>
					<polygon id="XMLID_71_" style="fill:#e50d0e;" points="357.166,111.787 355.296,111.218 356.401,107.582 358.875,108.334 					
						"/>
					<polygon id="XMLID_70_" style="fill:#e50d0e;" points="357.166,111.787 359.603,111.323 361.161,108.074 358.875,108.334 					
						"/>
					<polygon id="XMLID_108_" style="opacity:0.1;fill:#FFFFFF;" points="357.166,111.787 355.296,111.218 356.401,107.582 
						358.875,108.334 					"/>
				</g>
				<g>
					<polygon id="XMLID_43_" style="fill:#e50d0e;" points="376.199,117.572 378.07,118.14 379.175,114.504 376.701,113.752 					
						"/>
					<polygon id="XMLID_42_" style="fill:#e50d0e;" points="376.199,117.572 374.433,115.83 374.947,112.264 376.701,113.752 					
						"/>
					<polygon id="XMLID_41_" style="opacity:0.1;fill:#FFFFFF;" points="376.199,117.572 378.07,118.14 379.175,114.504 
						376.701,113.752 					"/>
				</g>
				<g>
					<g>
						<g id="XMLID_349_">
							<path id="XMLID_350_" style="fill:#e50d0e;" d="M354.9,98.767c-0.091-0.025-4.552-0.995-6.593-1.438
								c-0.072-0.016-0.1,0.089-0.031,0.112l4.986,1.693L354.9,98.767z"/>
							<g id="XMLID_95_" style="opacity:0.3;">
								<path id="XMLID_96_" style="fill:#FFFFFF;" d="M354.9,98.767c-0.091-0.025-4.552-0.995-6.593-1.438
									c-0.072-0.016-0.1,0.089-0.031,0.112l4.986,1.693L354.9,98.767z"/>
							</g>
						</g>
						<g id="XMLID_352_">
							<path id="XMLID_356_" style="fill:#e50d0e;" d="M354.601,101.402l-2.581-0.784l0.246-0.809
								c0.217-0.713,0.97-1.115,1.683-0.898l0,0c0.713,0.217,1.115,0.97,0.898,1.683L354.601,101.402z"/>
							<g id="XMLID_353_">
								<path style="fill:#e50d0e;" d="M354.904,98.219l-0.194,0.637l-1.269-0.386l0.194-0.638c0.105-0.346,0.478-0.545,0.823-0.439
									C354.81,97.501,355.009,97.873,354.904,98.219z"/>
							</g>
							<path id="XMLID_94_" style="opacity:0.4;fill:#FFFFFF;" d="M354.601,101.402l-2.581-0.784l0.246-0.809
								c0.217-0.713,0.97-1.115,1.683-0.898l0,0c0.713,0.217,1.115,0.97,0.898,1.683L354.601,101.402z"/>
						</g>
						<path id="XMLID_294_" style="fill:#e50d0e;" d="M358.327,99.613l1.258,0.566c0.227,0.102,0.196,0.434-0.046,0.493l0,0
							c-0.672,0.162-1.372,0.162-2.044-0.002l-1.61-0.393c-0.027-0.007-0.053-0.018-0.077-0.032l-1.621-1.013l-0.621-0.637
							l1.825,0.21C356.407,98.922,357.396,99.194,358.327,99.613z"/>
						<path id="XMLID_97_" style="opacity:0.6;fill:#FFFFFF;" d="M358.327,99.613l1.258,0.566c0.227,0.102,0.196,0.434-0.046,0.493
							l0,0c-0.672,0.162-1.372,0.162-2.044-0.002l-1.61-0.393c-0.027-0.007-0.053-0.018-0.077-0.032l-1.621-1.013l-0.621-0.637
							l1.825,0.21C356.407,98.922,357.396,99.194,358.327,99.613z"/>
						<g>
							<path style="fill:#e50d0e;" d="M361.949,104.499l-1.199,2.09l-8.766-4.263c-0.468-0.142-0.734-0.641-0.592-1.108
								c0.144-0.474,0.643-0.74,1.11-0.598l1.84,0.559c0.322,0.098,0.548,0.359,0.608,0.662l0.006,0.002L361.949,104.499z"/>
							<path style="opacity:0.4;fill:#FFFFFF;" d="M361.949,104.499l-1.199,2.09l-8.766-4.263c-0.468-0.142-0.734-0.641-0.592-1.108
								c0.144-0.474,0.643-0.74,1.11-0.598l1.84,0.559c0.322,0.098,0.548,0.359,0.608,0.662l0.006,0.002L361.949,104.499z"/>
						</g>
					</g>
					<g>
						<g id="XMLID_104_">
							<path id="XMLID_107_" style="fill:#e50d0e;" d="M385.354,108.023c0.09,0.03,4.335,1.707,6.278,2.474
								c0.068,0.027,0.034,0.129-0.037,0.11l-5.085-1.368L385.354,108.023z"/>
							<g id="XMLID_105_" style="opacity:0.3;">
								<path id="XMLID_106_" style="fill:#FFFFFF;" d="M385.354,108.023c0.09,0.03,4.335,1.707,6.278,2.474
									c0.068,0.027,0.034,0.129-0.037,0.11l-5.085-1.368L385.354,108.023z"/>
							</g>
						</g>
						<g id="XMLID_100_">
							<path id="XMLID_103_" style="fill:#e50d0e;" d="M384.136,110.379l2.581,0.784l0.246-0.809
								c0.217-0.713-0.185-1.466-0.898-1.683l0,0c-0.713-0.217-1.466,0.186-1.683,0.898L384.136,110.379z"/>
							<g id="XMLID_102_">
								<path style="fill:#e50d0e;" d="M385.655,107.565l-0.194,0.637l1.269,0.386l0.194-0.638c0.105-0.346-0.094-0.718-0.44-0.823
									C386.132,107.021,385.76,107.219,385.655,107.565z"/>
							</g>
							<path id="XMLID_101_" style="opacity:0.4;fill:#FFFFFF;" d="M384.136,110.379l2.581,0.784l0.246-0.809
								c0.217-0.713-0.185-1.466-0.898-1.683l0,0c-0.713-0.217-1.466,0.186-1.683,0.898L384.136,110.379z"/>
						</g>
						<path id="XMLID_99_" style="fill:#e50d0e;" d="M382.035,106.819l-1.361-0.23c-0.246-0.042-0.405,0.251-0.236,0.435l0,0
							c0.468,0.509,1.05,0.898,1.699,1.136l1.556,0.569c0.026,0.01,0.054,0.015,0.082,0.016l1.91,0.061l0.871-0.184l-1.634-0.841
							C384.015,107.313,383.041,106.989,382.035,106.819z"/>
						<path id="XMLID_98_" style="opacity:0.6;fill:#FFFFFF;" d="M382.035,106.819l-1.361-0.23
							c-0.246-0.042-0.405,0.251-0.236,0.435l0,0c0.468,0.509,1.05,0.898,1.699,1.136l1.556,0.569
							c0.026,0.01,0.054,0.015,0.082,0.016l1.91,0.061l0.871-0.184l-1.634-0.841C384.015,107.313,383.041,106.989,382.035,106.819z"
							/>
						<g>
							<path style="fill:#e50d0e;" d="M376.306,108.863l-0.167,2.403l9.656,1.336c0.467,0.142,0.966-0.124,1.109-0.592
								c0.144-0.474-0.123-0.972-0.59-1.115l-1.84-0.559c-0.322-0.098-0.655-0.007-0.874,0.212l-0.006-0.002L376.306,108.863z"/>
							<path style="opacity:0.4;fill:#FFFFFF;" d="M376.306,108.863l-0.167,2.403l9.656,1.336c0.467,0.142,0.966-0.124,1.109-0.592
								c0.144-0.474-0.123-0.972-0.59-1.115l-1.84-0.559c-0.322-0.098-0.655-0.007-0.874,0.212l-0.006-0.002L376.306,108.863z"/>
						</g>
					</g>
					<g id="XMLID_85_">
						<g id="XMLID_89_">
							<g>
								<path id="XMLID_92_" style="fill:#e50d0e;" d="M347.334,95.546c0.18,0.025,8.77,1.647,12.701,2.39
									c0.138,0.026,0.111,0.231-0.029,0.221l-10.058-0.739L347.334,95.546z"/>
								<path id="XMLID_185_" style="opacity:0.6;fill:#FFFFFF;" d="M347.334,95.546c0.18,0.025,8.77,1.647,12.701,2.39
									c0.138,0.026,0.111,0.231-0.029,0.221l-10.058-0.739L347.334,95.546z"/>
							</g>
							<path id="XMLID_91_" style="fill:#e50d0e;" d="M350.277,96.337c-0.182,0.597-0.813,0.934-1.41,0.752
								c-0.597-0.181-0.934-0.813-0.753-1.41c0.181-0.597,0.813-0.934,1.41-0.752C350.122,95.108,350.458,95.74,350.277,96.337z"/>
							
								<rect id="XMLID_90_" x="347.902" y="95.984" transform="matrix(0.9568 0.2908 -0.2908 0.9568 43.1595 -97.325)" style="fill:#e50d0e;" width="2.26" height="1.13"/>
						</g>
						
							<rect id="XMLID_88_" x="348.126" y="97.076" transform="matrix(0.9568 0.2908 -0.2908 0.9568 43.3917 -97.2227)" style="fill:#e50d0e;" width="1.311" height="0.59"/>
						<g>
							<g id="XMLID_86_">
								<path id="XMLID_87_" style="fill:#e50d0e;" d="M340.658,94.478l-2.642,0.058c-0.477,0.011-0.67,0.619-0.287,0.903l0,0
									c1.063,0.788,2.299,1.311,3.605,1.523l3.132,0.51c0.053,0.009,0.107,0.009,0.159,0l3.615-0.575l1.571-0.66l-3.376-0.993
									C344.561,94.694,342.612,94.435,340.658,94.478z"/>
							</g>
							<g id="XMLID_183_" style="opacity:0.6;">
								<path id="XMLID_184_" style="fill:#FFFFFF;" d="M340.658,94.478l-2.642,0.058c-0.477,0.011-0.67,0.619-0.287,0.903l0,0
									c1.063,0.788,2.299,1.311,3.605,1.523l3.132,0.51c0.053,0.009,0.107,0.009,0.159,0l3.615-0.575l1.571-0.66l-3.376-0.993
									C344.561,94.694,342.612,94.435,340.658,94.478z"/>
							</g>
						</g>
						<g>
							<g>
								<path id="XMLID_93_" style="fill:#e50d0e;" d="M349.762,101.759l-4.399-1.337l0.501-1.649
									c0.324-1.066,1.451-1.668,2.517-1.343l0.538,0.164c1.066,0.324,1.668,1.451,1.344,2.517L349.762,101.759z"/>
							</g>
							<path id="XMLID_186_" style="opacity:0.2;fill:#FFFFFF;" d="M349.762,101.759l-4.399-1.337l0.501-1.649
								c0.324-1.066,1.451-1.668,2.517-1.343l0.538,0.164c1.066,0.324,1.668,1.451,1.344,2.517L349.762,101.759z"/>
						</g>
					</g>
					<g>
						<path id="XMLID_50_" style="fill:#e50d0e;" d="M369.05,117.665l-6.219-1.89l0.464-0.498c0.372-0.4,0.94-0.553,1.464-0.394
							l3.186,0.968c0.523,0.159,0.91,0.602,0.997,1.142L369.05,117.665z"/>
						<path id="XMLID_61_" style="opacity:0.1;fill:#FFFFFF;" d="M369.05,117.665l-6.219-1.89l0.464-0.498
							c0.372-0.4,0.94-0.553,1.464-0.394l3.186,0.968c0.523,0.159,0.91,0.602,0.997,1.142L369.05,117.665z"/>
					</g>
					
						<rect id="XMLID_67_" x="365.917" y="112.031" transform="matrix(0.9568 0.2908 -0.2908 0.9568 48.9746 -101.7156)" style="opacity:0.3;" width="1.636" height="3.798"/>
					<path style="fill:#e50d0e;" d="M368.146,116.66l-4.001-1.216c-0.707-0.215-1.454,0.184-1.668,0.891l-0.583,1.918
						c-0.215,0.707,0.184,1.454,0.891,1.669l4.001,1.216c0.707,0.215,1.454-0.184,1.669-0.891l0.583-1.917
						C369.251,117.621,368.853,116.874,368.146,116.66z"/>
					<path style="opacity:0.2;fill:#FFFFFF;" d="M368.146,116.66l-4.001-1.216c-0.707-0.215-1.454,0.184-1.668,0.891l-0.583,1.918
						c-0.215,0.707,0.184,1.454,0.891,1.669l4.001,1.216c0.707,0.215,1.454-0.184,1.669-0.891l0.583-1.917
						C369.251,117.621,368.853,116.874,368.146,116.66z"/>
					<g id="XMLID_51_">
						<path id="XMLID_60_" style="fill:#e50d0e;" d="M367.124,120.066l-4.126-1.254l0.115-0.377c0.346-1.139,1.551-1.782,2.69-1.436
							l0,0c1.139,0.346,1.782,1.55,1.436,2.69L367.124,120.066z"/>
						<g>
							<path id="XMLID_59_" style="fill:#e50d0e;" d="M367.186,119.86c-0.312,1.025-1.468,1.512-2.608,1.166
								c-1.139-0.346-1.829-1.394-1.518-2.42c0.312-1.025,1.488-1.576,2.627-1.229C366.827,117.723,367.498,118.835,367.186,119.86z
								"/>
							<path id="XMLID_49_" style="opacity:0.3;" d="M367.186,119.86c-0.312,1.025-1.468,1.512-2.608,1.166
								c-1.139-0.346-1.829-1.394-1.518-2.42c0.312-1.025,1.488-1.576,2.627-1.229C366.827,117.723,367.498,118.835,367.186,119.86z
								"/>
						</g>
						<g id="XMLID_52_">
							<g id="XMLID_53_">
								<g>
									<g>
										<path id="XMLID_58_" style="fill:#e50d0e;" d="M366.666,119.893c-0.226,0.743-1.137,1.125-2.034,0.852
											c-0.897-0.273-1.442-1.096-1.216-1.84c0.226-0.743,1.137-1.125,2.034-0.852
											C366.347,118.326,366.892,119.149,366.666,119.893z"/>
									</g>
									<path id="XMLID_62_" style="opacity:0.2;" d="M366.666,119.893c-0.226,0.743-1.137,1.125-2.034,0.852
										c-0.897-0.273-1.442-1.096-1.216-1.84c0.226-0.743,1.137-1.125,2.034-0.852
										C366.347,118.326,366.892,119.149,366.666,119.893z"/>
								</g>
								<g>
									<path id="XMLID_57_" style="fill:#e50d0e;" d="M366.255,119.773c-0.169,0.556-0.85,0.842-1.521,0.638
										c-0.671-0.204-1.078-0.82-0.909-1.376c0.169-0.556,0.85-0.841,1.522-0.637
										C366.017,118.601,366.424,119.217,366.255,119.773z"/>
									<path id="XMLID_63_" style="opacity:0.3;" d="M366.255,119.773c-0.169,0.556-0.85,0.842-1.521,0.638
										c-0.671-0.204-1.078-0.82-0.909-1.376c0.169-0.556,0.85-0.841,1.522-0.637
										C366.017,118.601,366.424,119.217,366.255,119.773z"/>
								</g>
								<g>
									<path id="XMLID_56_" style="fill:#e50d0e;" d="M365.802,119.54c-0.102,0.335-0.512,0.507-0.916,0.384
										c-0.404-0.123-0.65-0.494-0.548-0.829s0.512-0.507,0.916-0.384C365.658,118.834,365.904,119.205,365.802,119.54z"/>
									<path id="XMLID_64_" style="opacity:0.4;" d="M365.802,119.54c-0.102,0.335-0.512,0.507-0.916,0.384
										c-0.404-0.123-0.65-0.494-0.548-0.829s0.512-0.507,0.916-0.384C365.658,118.834,365.904,119.205,365.802,119.54z"/>
								</g>
								<path id="XMLID_55_" style="fill:#e50d0e;" d="M365.675,119.366c-0.079,0.26-0.397,0.393-0.71,0.298
									c-0.313-0.095-0.503-0.383-0.424-0.643c0.079-0.26,0.397-0.393,0.71-0.298C365.564,118.818,365.754,119.106,365.675,119.366
									z"/>
								<g>
									<path id="XMLID_54_" style="fill:#e50d0e;" d="M365.443,119.197c-0.036,0.118-0.205,0.172-0.377,0.12
										c-0.172-0.052-0.282-0.191-0.246-0.309c0.036-0.118,0.205-0.172,0.377-0.12
										C365.369,118.94,365.479,119.078,365.443,119.197z"/>
									<path id="XMLID_65_" style="opacity:0.2;fill:#FFFFFF;" d="M365.443,119.197c-0.036,0.118-0.205,0.172-0.377,0.12
										c-0.172-0.052-0.282-0.191-0.246-0.309c0.036-0.118,0.205-0.172,0.377-0.12
										C365.369,118.94,365.479,119.078,365.443,119.197z"/>
								</g>
							</g>
						</g>
					</g>
					<path id="XMLID_2_" style="fill:#e50d0e;" d="M367.8,113.787l-1.87-0.568c-0.623-0.189-0.974-0.848-0.785-1.471l0,0
						c0.189-0.623,0.848-0.974,1.47-0.785l1.87,0.568c0.623,0.189,0.974,0.848,0.785,1.47l0,0
						C369.082,113.625,368.423,113.977,367.8,113.787z"/>
					<g>
						<path id="XMLID_75_" style="fill:#e50d0e;" d="M391.696,114.178l-3.131-0.952c-0.332-0.101-0.671-0.082-0.972,0.03
							l-37.507-11.4c-0.188-0.261-0.46-0.465-0.791-0.566l-3.131-0.952c-0.803-0.244-1.652,0.209-1.896,1.012l0,0
							c-0.244,0.803,0.209,1.652,1.012,1.896l2.299,0.699l0,0l12.93,5.363l0.616,2.51c0.322,1.313,1.314,2.36,2.607,2.753
							l5.449,1.656c1.294,0.393,2.7,0.075,3.698-0.837l1.908-1.743l13.728,2.74l0,0l2.299,0.699
							c0.803,0.244,1.652-0.209,1.896-1.012l0,0C392.952,115.271,392.499,114.422,391.696,114.178z"/>
						<path id="XMLID_74_" style="opacity:0.2;fill:#FFFFFF;" d="M391.696,114.178l-3.131-0.952
							c-0.332-0.101-0.671-0.082-0.972,0.03l-37.507-11.4c-0.188-0.261-0.46-0.465-0.791-0.566l-3.131-0.952
							c-0.803-0.244-1.652,0.209-1.896,1.012l0,0c-0.244,0.803,0.209,1.652,1.012,1.896l2.299,0.699l0,0l12.93,5.363l0.616,2.51
							c0.322,1.313,1.314,2.36,2.607,2.753l5.449,1.656c1.294,0.393,2.7,0.075,3.698-0.837l1.908-1.743l13.728,2.74l0,0l2.299,0.699
							c0.803,0.244,1.652-0.209,1.896-1.012l0,0C392.952,115.271,392.499,114.422,391.696,114.178z"/>
					</g>
					<g>
						<path id="XMLID_142_" style="fill:#e50d0e;" d="M376.909,110.01c-0.464,1.526-4.499,1.651-9.012,0.279
							c-4.514-1.372-7.797-3.721-7.333-5.247c0.464-1.526,4.499-1.651,9.012-0.279C374.09,106.135,377.373,108.484,376.909,110.01z"
							/>
						<path id="XMLID_109_" style="opacity:0.4;fill:#FFFFFF;" d="M376.909,110.01c-0.464,1.526-4.499,1.651-9.012,0.279
							c-4.514-1.372-7.797-3.721-7.333-5.247c0.464-1.526,4.499-1.651,9.012-0.279C374.09,106.135,377.373,108.484,376.909,110.01z"
							/>
					</g>
					<g id="XMLID_76_">
						<g id="XMLID_84_">
							<g>
								<path id="XMLID_190_" style="fill:#e50d0e;" d="M393.364,109.536c-0.163-0.079-8.203-3.512-11.883-5.082
									c-0.129-0.055-0.22,0.13-0.098,0.2l8.768,4.983L393.364,109.536z"/>
								<path id="XMLID_189_" style="opacity:0.6;fill:#FFFFFF;" d="M393.364,109.536c-0.163-0.079-8.203-3.512-11.883-5.082
									c-0.129-0.055-0.22,0.13-0.098,0.2l8.768,4.983L393.364,109.536z"/>
							</g>
							<path id="XMLID_188_" style="fill:#e50d0e;" d="M390.479,108.555c-0.181,0.597,0.156,1.228,0.753,1.41
								c0.597,0.181,1.228-0.155,1.41-0.752c0.181-0.597-0.155-1.228-0.753-1.41C391.292,107.621,390.66,107.958,390.479,108.555z"
								/>
							
								<rect id="XMLID_187_" x="390.266" y="108.859" transform="matrix(-0.9568 -0.2908 0.2908 -0.9568 734.0502 327.9468)" style="fill:#e50d0e;" width="2.26" height="1.13"/>
						</g>
						
							<rect id="XMLID_83_" x="390.49" y="109.952" transform="matrix(-0.9568 -0.2908 0.2908 -0.9568 733.3193 329.4878)" style="fill:#e50d0e;" width="1.311" height="0.59"/>
						<g>
							<g id="XMLID_81_">
								<path id="XMLID_82_" style="fill:#e50d0e;" d="M399.505,112.364l2.163,1.519c0.391,0.274,0.213,0.887-0.264,0.91l0,0
									c-1.322,0.063-2.639-0.19-3.843-0.74l-2.886-1.319c-0.049-0.022-0.093-0.052-0.132-0.088l-2.684-2.489l-0.938-1.423
									l3.357,1.053C396.143,110.371,397.906,111.241,399.505,112.364z"/>
							</g>
							<g id="XMLID_79_" style="opacity:0.6;">
								<path id="XMLID_80_" style="fill:#FFFFFF;" d="M399.505,112.364l2.163,1.519c0.391,0.274,0.213,0.887-0.264,0.91l0,0
									c-1.322,0.063-2.639-0.19-3.843-0.74l-2.886-1.319c-0.049-0.022-0.093-0.052-0.132-0.088l-2.684-2.489l-0.938-1.423
									l3.357,1.053C396.143,110.371,397.906,111.241,399.505,112.364z"/>
							</g>
						</g>
						<g>
							<g>
								<path id="XMLID_78_" style="fill:#e50d0e;" d="M387.889,113.347l4.399,1.337l0.419-1.379
									c0.369-1.215-0.316-2.499-1.531-2.868l0,0c-1.215-0.369-2.499,0.316-2.868,1.531L387.889,113.347z"/>
							</g>
							<path id="XMLID_77_" style="opacity:0.2;fill:#FFFFFF;" d="M387.889,113.347l4.399,1.337l0.419-1.379
								c0.369-1.215-0.316-2.499-1.531-2.868l0,0c-1.215-0.369-2.499,0.316-2.868,1.531L387.889,113.347z"/>
						</g>
					</g>
				</g>
			</g>
		</g>
	</g>
</g>
<g id="Rocket">
	<g>
		<g>
			<g>
				<path style="fill:#e50d0e;" d="M131.97,127.784l3.829-32.593c0.059-0.502-0.454-0.876-0.914-0.666l-29.846,13.645
					c-0.451,0.206-0.513,0.822-0.112,1.115l26.018,18.948C131.344,128.525,131.912,128.277,131.97,127.784z"/>
				<path style="opacity:0.3;" d="M131.97,127.784l3.829-32.593c0.059-0.502-0.454-0.876-0.914-0.666l-29.846,13.645
					c-0.451,0.206-0.513,0.822-0.112,1.115l26.018,18.948C131.344,128.525,131.912,128.277,131.97,127.784z"/>
			</g>
			<g>
				<g>
					<g>
						<path style="fill:#263238;" d="M121.605,126.718l2.521-2.133l2.277,1.658l-1.257,3.053
							C123.722,128.954,122.429,128.067,121.605,126.718z"/>
						<path style="opacity:0.2;fill:#FFFFFF;" d="M126.402,126.244c0,0-0.189,0.458-0.294,0.715
							c-0.993-0.359-1.893-0.993-2.574-1.874l0.591-0.5L126.402,126.244z"/>
						<path style="opacity:0.4;fill:#FFFFFF;" d="M125.792,127.726c-0.08,0.194-0.16,0.389-0.236,0.574
							c-1.216-0.415-2.316-1.189-3.128-2.279l0.473-0.401C123.734,126.52,124.719,127.227,125.792,127.726z"/>
					</g>
					<g>
						<path style="fill:#e50d0e;" d="M122.993,123.48c1.12,1.832,2.876,3.036,4.81,3.503l14.027-19.26
							c1.651-2.267,2.227-4.989,1.824-7.557c-2.568,0.404-4.982,1.787-6.633,4.054L122.993,123.48z"/>
						<g>
							<path style="fill:#e50d0e;" d="M141.829,107.723c0,0-11.794,16.194-13.223,18.156c-1.893-0.579-3.606-1.772-4.81-3.502
								c1.429-1.962,13.223-18.156,13.223-18.156c1.651-2.267,4.065-3.651,6.633-4.054
								C144.056,102.734,143.48,105.455,141.829,107.723z"/>
							<path style="opacity:0.4;fill:#FFFFFF;" d="M141.829,107.723c0,0-11.794,16.194-13.223,18.156
								c-1.893-0.579-3.606-1.772-4.81-3.502c1.429-1.962,13.223-18.156,13.223-18.156c1.651-2.267,4.065-3.651,6.633-4.054
								C144.056,102.734,143.48,105.455,141.829,107.723z"/>
						</g>
						<g>
							<path style="fill:#e50d0e;" d="M141.829,107.723c0,0-5.971,8.199-9.931,13.635c-1.853-0.68-3.532-1.865-4.81-3.502
								c3.96-5.437,9.931-13.636,9.931-13.636c1.651-2.267,4.065-3.651,6.633-4.054C144.056,102.734,143.48,105.455,141.829,107.723
								z"/>
							<path style="opacity:0.6;fill:#FFFFFF;" d="M141.829,107.723c0,0-5.971,8.199-9.931,13.635
								c-1.853-0.68-3.532-1.865-4.81-3.502c3.96-5.437,9.931-13.636,9.931-13.636c1.651-2.267,4.065-3.651,6.633-4.054
								C144.056,102.734,143.48,105.455,141.829,107.723z"/>
						</g>
						<g>
							<path style="fill:#e50d0e;" d="M141.829,107.723c0,0-2.42,3.323-5.2,7.14c-1.853-0.68-3.532-1.865-4.81-3.502
								c2.781-3.818,5.201-7.141,5.201-7.141c1.651-2.267,4.065-3.651,6.633-4.054C144.056,102.734,143.48,105.455,141.829,107.723z
								"/>
							<path style="opacity:0.8;fill:#FFFFFF;" d="M141.829,107.723c0,0-2.42,3.323-5.2,7.14c-1.853-0.68-3.532-1.865-4.81-3.502
								c2.781-3.818,5.201-7.141,5.201-7.141c1.651-2.267,4.065-3.651,6.633-4.054C144.056,102.734,143.48,105.455,141.829,107.723z
								"/>
						</g>
						<g>
							<path style="fill:#e50d0e;" d="M141.829,107.723c0,0-0.222,0.305-0.607,0.833c-1.853-0.68-3.532-1.865-4.81-3.502
								c0.385-0.529,0.607-0.834,0.607-0.834c1.651-2.267,4.065-3.651,6.633-4.054C144.056,102.734,143.48,105.455,141.829,107.723z
								"/>
							<path style="opacity:0.4;fill:#FFFFFF;" d="M141.829,107.723c0,0-0.222,0.305-0.607,0.833
								c-1.853-0.68-3.532-1.865-4.81-3.502c0.385-0.529,0.607-0.834,0.607-0.834c1.651-2.267,4.065-3.651,6.633-4.054
								C144.056,102.734,143.48,105.455,141.829,107.723z"/>
						</g>
					</g>
				</g>
				<g>
					<g>
						<path style="fill:#263238;" d="M106.134,115.451l2.521-2.133l2.277,1.659l-1.257,3.053
							C108.251,117.686,106.958,116.799,106.134,115.451z"/>
						<path style="opacity:0.2;fill:#FFFFFF;" d="M110.932,114.977c0,0-0.189,0.458-0.294,0.715
							c-0.993-0.359-1.893-0.993-2.574-1.874l0.591-0.5L110.932,114.977z"/>
						<path style="opacity:0.4;fill:#FFFFFF;" d="M110.321,116.459c-0.08,0.194-0.16,0.389-0.236,0.574
							c-1.216-0.415-2.316-1.189-3.128-2.279l0.473-0.401C108.263,115.253,109.248,115.96,110.321,116.459z"/>
					</g>
					<g>
						<path style="fill:#e50d0e;" d="M107.521,112.212c1.12,1.832,2.876,3.036,4.81,3.503l14.027-19.26
							c1.651-2.267,2.227-4.989,1.824-7.557c-2.568,0.404-4.982,1.787-6.633,4.054L107.521,112.212z"/>
						<g>
							<path style="fill:#e50d0e;" d="M126.358,96.455c0,0-11.794,16.194-13.223,18.156c-1.894-0.579-3.606-1.772-4.81-3.502
								c1.429-1.962,13.223-18.156,13.223-18.156c1.651-2.267,4.065-3.651,6.633-4.054
								C128.585,91.466,128.009,94.188,126.358,96.455z"/>
							<path style="opacity:0.4;fill:#FFFFFF;" d="M126.358,96.455c0,0-11.794,16.194-13.223,18.156
								c-1.894-0.579-3.606-1.772-4.81-3.502c1.429-1.962,13.223-18.156,13.223-18.156c1.651-2.267,4.065-3.651,6.633-4.054
								C128.585,91.466,128.009,94.188,126.358,96.455z"/>
						</g>
						<g>
							<path style="fill:#e50d0e;" d="M126.358,96.455c0,0-5.971,8.198-9.931,13.635c-1.853-0.68-3.532-1.865-4.81-3.502
								c3.96-5.437,9.931-13.636,9.931-13.636c1.651-2.267,4.065-3.651,6.633-4.054C128.585,91.466,128.009,94.188,126.358,96.455z"
								/>
							<path style="opacity:0.6;fill:#FFFFFF;" d="M126.358,96.455c0,0-5.971,8.198-9.931,13.635
								c-1.853-0.68-3.532-1.865-4.81-3.502c3.96-5.437,9.931-13.636,9.931-13.636c1.651-2.267,4.065-3.651,6.633-4.054
								C128.585,91.466,128.009,94.188,126.358,96.455z"/>
						</g>
						<g>
							<path style="fill:#e50d0e;" d="M126.358,96.455c0,0-2.42,3.323-5.2,7.14c-1.853-0.68-3.532-1.865-4.81-3.502
								c2.78-3.818,5.201-7.141,5.201-7.141c1.651-2.267,4.065-3.651,6.633-4.054C128.585,91.466,128.009,94.188,126.358,96.455z"/>
							<path style="opacity:0.8;fill:#FFFFFF;" d="M126.358,96.455c0,0-2.42,3.323-5.2,7.14c-1.853-0.68-3.532-1.865-4.81-3.502
								c2.78-3.818,5.201-7.141,5.201-7.141c1.651-2.267,4.065-3.651,6.633-4.054C128.585,91.466,128.009,94.188,126.358,96.455z"/>
						</g>
						<g>
							<path style="fill:#e50d0e;" d="M126.358,96.455c0,0-0.222,0.305-0.607,0.833c-1.853-0.68-3.532-1.865-4.81-3.502
								c0.385-0.529,0.607-0.834,0.607-0.834c1.651-2.267,4.065-3.651,6.633-4.054C128.585,91.466,128.009,94.188,126.358,96.455z"
								/>
							<path style="opacity:0.4;fill:#FFFFFF;" d="M126.358,96.455c0,0-0.222,0.305-0.607,0.833c-1.853-0.68-3.532-1.865-4.81-3.502
								c0.385-0.529,0.607-0.834,0.607-0.834c1.651-2.267,4.065-3.651,6.633-4.054C128.585,91.466,128.009,94.188,126.358,96.455z"
								/>
						</g>
					</g>
				</g>
			</g>
			<g>
				<g>
					<path style="fill:#263238;" d="M111.697,121.782l4.069-3.443l3.676,2.678l-2.029,4.929
						C115.115,125.391,113.027,123.959,111.697,121.782z"/>
					<path style="opacity:0.2;fill:#FFFFFF;" d="M119.442,121.016c0,0-0.305,0.74-0.475,1.154c-1.604-0.58-3.056-1.604-4.155-3.025
						l0.953-0.807L119.442,121.016z"/>
					<path style="opacity:0.4;fill:#FFFFFF;" d="M118.457,123.409c-0.129,0.313-0.258,0.628-0.381,0.926
						c-1.963-0.671-3.739-1.92-5.049-3.679l0.764-0.647C115.134,121.462,116.724,122.603,118.457,123.409z"/>
				</g>
				<g>
					<path style="fill:#e50d0e;" d="M113.937,116.554c1.807,2.957,4.642,4.901,7.764,5.655l22.645-31.093
						c2.666-3.66,3.596-8.055,2.944-12.2c-4.146,0.652-8.043,2.885-10.708,6.545L113.937,116.554z"/>
					<g>
						<path style="fill:#e50d0e;" d="M144.347,91.116c0,0-19.04,26.143-21.347,29.311c-3.057-0.934-5.821-2.861-7.765-5.654
							c2.306-3.167,21.347-29.311,21.347-29.311c2.666-3.66,6.563-5.894,10.708-6.545C147.942,83.061,147.012,87.455,144.347,91.116
							z"/>
						<path style="opacity:0.4;fill:#FFFFFF;" d="M144.347,91.116c0,0-19.04,26.143-21.347,29.311
							c-3.057-0.934-5.821-2.861-7.765-5.654c2.306-3.167,21.347-29.311,21.347-29.311c2.666-3.66,6.563-5.894,10.708-6.545
							C147.942,83.061,147.012,87.455,144.347,91.116z"/>
					</g>
					<g>
						<path style="fill:#e50d0e;" d="M144.347,91.116c0,0-9.639,13.235-16.032,22.013c-2.992-1.097-5.702-3.011-7.766-5.654
							c6.393-8.777,16.033-22.014,16.033-22.014c2.666-3.66,6.563-5.894,10.708-6.545C147.942,83.061,147.012,87.455,144.347,91.116
							z"/>
						<path style="opacity:0.6;fill:#FFFFFF;" d="M144.347,91.116c0,0-9.639,13.235-16.032,22.013
							c-2.992-1.097-5.702-3.011-7.766-5.654c6.393-8.777,16.033-22.014,16.033-22.014c2.666-3.66,6.563-5.894,10.708-6.545
							C147.942,83.061,147.012,87.455,144.347,91.116z"/>
					</g>
					<g>
						<path style="fill:#e50d0e;" d="M144.347,91.116c0,0-3.907,5.364-8.395,11.527c-2.992-1.097-5.702-3.011-7.766-5.654
							c4.489-6.163,8.396-11.528,8.396-11.528c2.666-3.66,6.563-5.894,10.708-6.545C147.942,83.061,147.012,87.455,144.347,91.116z"
							/>
						<path style="opacity:0.8;fill:#FFFFFF;" d="M144.347,91.116c0,0-3.907,5.364-8.395,11.527
							c-2.992-1.097-5.702-3.011-7.766-5.654c4.489-6.163,8.396-11.528,8.396-11.528c2.666-3.66,6.563-5.894,10.708-6.545
							C147.942,83.061,147.012,87.455,144.347,91.116z"/>
					</g>
					<g>
						<path style="fill:#e50d0e;" d="M144.347,91.116c0,0-0.358,0.492-0.979,1.345c-2.992-1.097-5.702-3.011-7.766-5.654
							c0.622-0.854,0.98-1.346,0.98-1.346c2.666-3.66,6.563-5.894,10.708-6.545C147.942,83.061,147.012,87.455,144.347,91.116z"/>
						<path style="opacity:0.1;fill:#FFFFFF;" d="M144.347,91.116c0,0-0.358,0.492-0.979,1.345
							c-2.992-1.097-5.702-3.011-7.766-5.654c0.622-0.854,0.98-1.346,0.98-1.346c2.666-3.66,6.563-5.894,10.708-6.545
							C147.942,83.061,147.012,87.455,144.347,91.116z"/>
					</g>
				</g>
				<g>
					<path style="fill:#e50d0e;" d="M133.673,92.862c-0.91,1.249-0.635,2.998,0.614,3.908c1.249,0.91,2.998,0.634,3.908-0.614
						c0.91-1.249,0.635-2.998-0.614-3.908C136.332,91.338,134.583,91.613,133.673,92.862z"/>
					<g>
						<path style="fill:#e50d0e;" d="M134.288,96.77c1.191,0.868,2.836,0.655,3.775-0.45c-0.037,0.06-0.074,0.119-0.116,0.177
							c-0.91,1.249-2.659,1.524-3.908,0.614c-1.249-0.91-1.524-2.659-0.614-3.908c0.042-0.058,0.087-0.111,0.133-0.164
							C132.794,94.271,133.096,95.902,134.288,96.77z"/>
						<path style="opacity:0.3;" d="M134.288,96.77c1.191,0.868,2.836,0.655,3.775-0.45c-0.037,0.06-0.074,0.119-0.116,0.177
							c-0.91,1.249-2.659,1.524-3.908,0.614c-1.249-0.91-1.524-2.659-0.614-3.908c0.042-0.058,0.087-0.111,0.133-0.164
							C132.794,94.271,133.096,95.902,134.288,96.77z"/>
					</g>
					<path style="fill:#FFFFFF;" d="M134.335,93.344c-0.643,0.883-0.449,2.12,0.434,2.763c0.883,0.643,2.12,0.449,2.763-0.434
						c0.643-0.883,0.449-2.12-0.434-2.763C136.216,92.266,134.979,92.461,134.335,93.344z"/>
					<g>
						<g>
							<path style="fill:#e50d0e;" d="M134.86,96.16l1.588-3.556c0.212,0.057,0.418,0.15,0.608,0.281l-1.584,3.546
								C135.259,96.38,135.053,96.286,134.86,96.16z"/>
							<path style="fill:#e50d0e;" d="M134.324,95.642l1.381-3.093c0.123-0.014,0.247-0.018,0.371-0.009l-1.511,3.383
								C134.475,95.837,134.395,95.743,134.324,95.642z"/>
						</g>
						<g style="opacity:0.7;">
							<path style="fill:#FFFFFF;" d="M134.86,96.16l1.588-3.556c0.212,0.057,0.418,0.15,0.608,0.281l-1.584,3.546
								C135.259,96.38,135.053,96.286,134.86,96.16z"/>
							<path style="fill:#FFFFFF;" d="M134.324,95.642l1.381-3.093c0.123-0.014,0.247-0.018,0.371-0.009l-1.511,3.383
								C134.475,95.837,134.395,95.743,134.324,95.642z"/>
						</g>
					</g>
				</g>
			</g>
		</g>
	</g>
</g>
<g id="Magnifying_Glass">
	<g>
		<g>
			
				<ellipse transform="matrix(0.9472 -0.3208 0.3208 0.9472 -53.3278 41.9557)" style="opacity:0.1;" cx="100.681" cy="182.839" rx="15.47" ry="15.47"/>
		</g>
		<g>
			<polygon style="fill:#e50d0e;" points="95.527,195.744 80.807,224.234 78.368,222.971 93.089,194.481 			"/>
			<polyline style="opacity:0.5;" points="93.089,194.481 95.527,195.744 80.807,224.234 78.368,222.971 			"/>
			<g>
				<path style="fill:#e50d0e;" d="M90.709,209.206l-7.237,13.966c-0.551,1.064-1.861,1.479-2.925,0.928l-1.92-0.995
					c-1.064-0.551-1.479-1.861-0.928-2.925l7.237-13.966c0.614-1.186,2.074-1.649,3.26-1.035l1.477,0.766
					C90.86,206.56,91.323,208.02,90.709,209.206z"/>
				<path style="opacity:0.5;fill:#FFFFFF;" d="M90.709,209.206l-7.237,13.966c-0.551,1.064-1.861,1.479-2.925,0.928l-1.92-0.995
					c-1.064-0.551-1.479-1.861-0.928-2.925l7.237-13.966c0.614-1.186,2.074-1.649,3.26-1.035l1.477,0.766
					C90.86,206.56,91.323,208.02,90.709,209.206z"/>
			</g>
			<g>
				<path style="fill:#e50d0e;" d="M106.238,198.756c-0.15,0.052-0.3,0.102-0.452,0.15c-4.293,1.36-8.859,0.968-12.858-1.104
					c-8.257-4.278-11.496-14.471-7.221-22.721c2.071-3.997,5.58-6.947,9.868-8.308c4.292-1.36,8.859-0.968,12.858,1.104
					c8.257,4.278,11.496,14.471,7.221,22.721C113.657,194.453,110.325,197.335,106.238,198.756z M96.055,169.596
					c-3.4,1.182-6.172,3.579-7.834,6.786c-3.557,6.864-0.861,15.345,6.009,18.905c3.328,1.725,7.129,2.051,10.7,0.919
					c3.569-1.133,6.487-3.586,8.21-6.911c3.557-6.864,0.861-15.345-6.009-18.905c-3.328-1.725-7.129-2.051-10.7-0.919
					C96.305,169.512,96.179,169.553,96.055,169.596z"/>
			</g>
		</g>
		<path style="opacity:0.5;fill:#FFFFFF;" d="M94.041,171.294c-4.552,2.794-7.987,10.354-5.841,16.418
			c0.683,1.245,1.123,2.02,1.732,2.992c0.178,0.284,0.616,0.158,0.618-0.177c0.031-7.541,2.383-14.091,7.158-19.931
			c0.211-0.258-0.043-0.633-0.361-0.53C96.226,170.425,95.382,170.749,94.041,171.294z"/>
		<g style="opacity:0.5;">
			<g>
				<path style="fill:#FFFFFF;" d="M111.352,174.872c-0.558,7.41-3.362,14.899-7.652,20.95c-0.038,0.054-0.094,0.096-0.157,0.118
					c-0.623,0.226-1.049,0.38-1.527,0.549c-0.28,0.099-0.531-0.202-0.384-0.461c3.835-6.789,6.715-14.478,8.063-22.183
					c0.086-0.489,0.725-0.62,0.997-0.204c0.174,0.265,0.353,0.543,0.573,0.888C111.33,174.63,111.361,174.751,111.352,174.872z"/>
			</g>
		</g>
	</g>
</g>
<g id="Character_2_1_">
	<g>
		<g>
			<g>
				<polygon style="fill:#DD8C6A;" points="336.846,397.165 335.514,409.648 328.699,408.937 329.365,395.326 				"/>
				<g>
					<path style="fill:#e50d0e;" d="M325.48,409.067c-0.858-0.063-1.734-0.285-1.991-0.675c-0.131-0.227-0.105-0.511,0.065-0.71
						c0.129-0.181,0.324-0.305,0.543-0.345c1.176-0.232,3.484,1.32,3.586,1.389c0.057,0.039,0.084,0.109,0.067,0.176
						c-0.018,0.066-0.074,0.115-0.142,0.125C326.901,409.102,326.189,409.116,325.48,409.067z M324.481,407.643
						c-0.106-0.009-0.212-0.004-0.316,0.018c-0.138,0.013-0.262,0.089-0.338,0.205c-0.136,0.195-0.101,0.296-0.058,0.355
						c0.287,0.473,2.028,0.612,3.324,0.547C326.301,408.231,325.415,407.85,324.481,407.643z"/>
					<path style="fill:#e50d0e;" d="M327.582,409.022c-0.023,0.005-0.047,0.001-0.068-0.011c-0.799-0.427-2.348-2.046-2.144-2.811
						c0.031-0.186,0.188-0.404,0.642-0.416c0.331-0.011,0.653,0.114,0.89,0.346c0.826,0.788,0.874,2.663,0.877,2.751
						c0,0.059-0.032,0.114-0.084,0.142C327.658,409.037,327.618,409.036,327.582,409.022z M326.098,406.102l-0.093-0.015
						c-0.296,0.003-0.324,0.12-0.339,0.161c-0.077,0.465,0.925,1.716,1.744,2.285c-0.024-0.789-0.29-1.551-0.762-2.184
						C326.501,406.203,326.306,406.115,326.098,406.102L326.098,406.102z"/>
					<path style="fill:#263238;" d="M328.383,408.111l7.537,0.553c0.284,0.021,0.516,0.236,0.558,0.518l0.913,6.232
						c0.085,0.552-0.294,1.069-0.846,1.154c-0.071,0.011-0.143,0.014-0.214,0.01c-2.714-0.246-5.119-0.572-8.502-0.816
						c-3.992-0.292-3.014,0.26-7.712-0.017c-2.83-0.17-3.112-3.422-1.902-3.492c5.538-0.288,6.23-1.903,8.49-3.712
						C327.193,408.195,327.79,408.043,328.383,408.111z"/>
				</g>
				<polygon style="opacity:0.2;" points="328.995,402.88 334.082,402.68 336.165,403.545 334.386,406.067 328.841,405.775 				"/>
			</g>
			<g>
				<path style="fill:#e50d0e;" d="M353.92,271.422l-12.065,72.955l-3.963,61.238l-10.226-1.261c0,0-1.796-30.636-0.083-62.798
					c1.547-29.043,6.578-59.355,7.307-69.045l3.78-6.69l7.53,0.928L353.92,271.422z"/>
				<g>
					<path style="fill:#DD8C6A;" d="M400.163,399.851l-5.213,2.672c0,0-1.186-2.088-3.094-5.469c-0.425-0.753-0.89-1.572-1.379-2.44
						l6.223-2.72l0.082-0.04c0.056,0.139,0.12,0.278,0.176,0.409c0.311,0.736,0.598,1.423,0.877,2.069
						C399.278,397.734,400.163,399.851,400.163,399.851z"/>
					<g>
						<path style="fill:#e50d0e;" d="M391.216,402.339c-0.786,0.355-1.664,0.578-2.077,0.358c-0.224-0.137-0.337-0.4-0.283-0.657
							c0.027-0.221,0.14-0.424,0.313-0.564c0.925-0.767,3.699-0.503,3.822-0.491c0.069,0.007,0.126,0.056,0.143,0.123
							c0.016,0.067-0.01,0.137-0.066,0.178C392.484,401.69,391.864,402.043,391.216,402.339z M389.655,401.563
							c-0.098,0.042-0.188,0.098-0.27,0.167c-0.115,0.077-0.189,0.204-0.199,0.342c-0.027,0.237,0.053,0.309,0.118,0.341
							c0.479,0.279,2.078-0.431,3.189-1.108C391.54,401.211,390.577,401.298,389.655,401.563z"/>
						<path style="fill:#e50d0e;" d="M393.045,401.294c-0.018,0.016-0.041,0.024-0.065,0.023c-0.907,0.006-3.046-0.679-3.232-1.451
							c-0.062-0.179-0.027-0.445,0.367-0.673c0.287-0.168,0.63-0.211,0.949-0.121c1.104,0.298,2.043,1.928,2.087,2.003
							c0.028,0.052,0.026,0.116-0.006,0.166C393.119,401.271,393.084,401.29,393.045,401.294z M390.343,399.432l-0.089,0.031
							c-0.259,0.144-0.228,0.261-0.222,0.304c0.155,0.446,1.635,1.069,2.628,1.178c-0.399-0.683-0.997-1.227-1.715-1.559
							C390.746,399.328,390.532,399.345,390.343,399.432L390.343,399.432z"/>
						<path style="fill:#263238;" d="M393.759,399.988l5.46-2.528c0.26-0.117,0.567-0.039,0.738,0.189l3.783,5.052
							c0.339,0.446,0.252,1.082-0.193,1.42c-0.057,0.043-0.119,0.081-0.184,0.111c-2.507,1.08-3.339,1.354-6.435,2.757
							c-3.655,1.652-2.53,1.67-6.8,3.672c-2.574,1.203-4.377-1.526-3.345-2.166C391.523,405.594,393.205,400.212,393.759,399.988z"
							/>
					</g>
					<path style="opacity:0.2;" d="M397.835,394.332l-5.978,2.722c-0.425-0.753-0.89-1.572-1.379-2.44l6.223-2.72l0.257,0.369
						C397.269,393,397.556,393.686,397.835,394.332z"/>
					<path style="fill:#e50d0e;" d="M342.702,270.993c0,0,12.595,61.154,18.63,75.793c5.359,12.999,29.131,49.585,29.131,49.585
						l7.418-3.706c0,0-8.256-23.36-16.182-38.363c-2.766-5.234-5.646-9.25-6.879-12.076c-1.626-3.725-1.127-65.433-10.384-71.525
						L342.702,270.993z"/>
				</g>
				<path style="opacity:0.2;" d="M348.507,302.481l-4.161,26.16c-1.074-14.965,1.002-38.084,1.002-38.084L348.507,302.481z"/>
			</g>
		</g>
		<path style="fill:#263238;" d="M333.781,262.338c0.254-2.708,0.426-5.354,0.211-7.869c-2.133-24.954-2.16-27.389-1.951-31.78
			c0.037-0.787,0.55-1.475,1.295-1.73c17.257-5.905,32.32-3.125,36.222-0.934c5.199,2.918,3.13,6.05,3.071,6.947
			c-0.486,7.395-5.258,22.044-5.333,34.048c-0.011,1.76,0.189,6,0.307,8.341c0.048,0.952-0.602,1.792-1.535,1.987
			c-3.875,0.812-22.483,1.039-25.675,0.941c-3.037-0.093-5.04-0.276-6.322-0.447c-1.114-0.149-1.857-1.222-1.62-2.321
			C332.922,267.344,333.635,263.898,333.781,262.338z"/>
		<g>
			<g>
				<path style="fill:#DD8C6A;" d="M355.007,207.181c-0.652,3.867-1.254,9.531,1.51,12.033c0,0-0.044,3.936-10.838,8.471
					c-4.08-5.534-1.19-8.155-1.19-8.155c4.288-1.139,4.124-2.886,3.3-5.865L355.007,207.181z"/>
				<path style="opacity:0.2;enable-background:new    ;" d="M352.078,209.793l-4.241,3.87c0.205,0.691,0.347,1.398,0.425,2.115
					c1.647-0.277,4.195-1.743,4.5-3.541C352.741,211.378,352.506,210.538,352.078,209.793z"/>
				<path style="fill:#DD8C6A;" d="M359.871,200.435c-1.564,6.365-2.094,9.083-5.944,11.789c-5.794,4.077-13.266,0.755-13.636-5.941
					c-0.322-6.033,2.301-15.459,9.065-16.831c4.826-1.031,9.574,2.045,10.604,6.871C360.25,197.682,360.22,199.09,359.871,200.435z"
					/>
				<path style="fill:#263238;" d="M348.845,199.631c-0.101,0.523-0.456,0.898-0.794,0.84c-0.338-0.058-0.544-0.543-0.453-1.065
					c0.091-0.522,0.456-0.898,0.794-0.84C348.73,198.624,348.908,199.129,348.845,199.631z"/>
				<path style="fill:#263238;" d="M342.972,198.618c-0.101,0.532-0.456,0.898-0.794,0.84s-0.544-0.543-0.453-1.065
					c0.091-0.522,0.456-0.898,0.795-0.83C342.858,197.63,343.064,198.096,342.972,198.618z"/>
				<path style="fill:#263238;" d="M346.845,206.726c-0.263-0.006-0.524-0.034-0.782-0.084c-0.084-0.012-0.143-0.09-0.131-0.174
					c0-0.002,0-0.004,0.001-0.005c0.021-0.084,0.104-0.137,0.189-0.121c1.316,0.266,2.68-0.107,3.676-1.007
					c0.059-0.063,0.158-0.066,0.221-0.006c0.063,0.059,0.065,0.158,0.006,0.221C349.168,206.355,348.021,206.779,346.845,206.726z"
					/>
				<path style="fill:#263238;" d="M351.622,198.828c-0.135,0.022-0.269-0.048-0.327-0.172c-0.565-0.86-1.464-1.446-2.479-1.615
					c-0.173-0.026-0.291-0.187-0.266-0.36c0.025-0.168,0.182-0.284,0.35-0.258c0.004,0.001,0.008,0.001,0.011,0.002
					c1.222,0.195,2.298,0.912,2.949,1.965c0.073,0.154,0.008,0.337-0.146,0.41l0,0C351.687,198.818,351.655,198.828,351.622,198.828
					z"/>
				<path style="fill:#263238;" d="M341.935,196.589c-0.112,0.024-0.227-0.013-0.306-0.096c-0.116-0.128-0.108-0.325,0.018-0.444
					c0.725-0.72,1.762-1.031,2.764-0.83c0.161,0.034,0.264,0.193,0.23,0.354c-0.002,0.008-0.004,0.016-0.006,0.024
					c-0.041,0.165-0.208,0.266-0.373,0.225c-0.002,0-0.003-0.001-0.005-0.001l0,0c-0.787-0.129-1.587,0.125-2.156,0.683
					C342.056,196.549,341.998,196.579,341.935,196.589z"/>
				<g>
					<path style="fill:#263238;" d="M357.939,217.36l-1.134-0.185l-6.321,3.454l-1.96,0.077l-3.764-3.183l-1.252,0.301l0,0
						c-1.169,3.62-1.389,7.479-0.639,11.208l2.146,10.669l2.24,11.675l0.045-0.002l0.47-1.076l1.76-4.026l2.408-4.594l4.39-11.225
						l1.244-4.624C358.315,223.067,358.44,220.175,357.939,217.36L357.939,217.36z"/>
				</g>
				<path style="opacity:0.1;" d="M351.111,220.711c-6.778,0.074-7.537-2.423-7.537-2.423l0.005-0.59c0,0-2.032,3.852,3.85,4.521
					c5.882,0.669,9.803-2.119,10.635-3.797c0.001-0.002,0.001-0.004,0.002-0.006C357.402,219.307,355.651,220.661,351.111,220.711z"
					/>
				<path style="fill:#263238;" d="M359.817,206.959c1.729-1.359,1.529-3.645,2.552-5.592c1.77-3.368,0.02-4.771,0.02-4.771
					c1.5-2.088,0.248-5.016-2.589-4.684c-1.008-1.63-2.056-3.303-3.612-4.422c-2.648-1.904-6.59-1.614-9.049,0.529
					c-0.784-0.763-2.25-0.617-2.867,0.286c-0.617,0.903-0.222,2.322,0.774,2.776c0.841,1.292,2.394,2.259,3.847,2.773
					c2.034,0.72,5.505,0.894,7.624,1.305c-0.031,1.593-0.471,3.599-0.71,5.174c-0.752,4.952-0.028,10.333-0.028,10.333
					C357.238,209.54,359.565,208.785,359.817,206.959z"/>
				<path style="fill:#DD8C6A;" d="M359.614,205.026c-0.576,1.011-1.528,1.755-2.65,2.068c-1.496,0.394-2.228-0.949-1.799-2.359
					c0.398-1.265,1.649-2.997,3.144-2.795c1.081,0.181,1.811,1.204,1.629,2.285C359.89,204.512,359.78,204.786,359.614,205.026z"/>
				<path style="fill:#FFFFFF;" d="M356.746,200.492l-4.339-0.731c-0.367-1.11-1.929-1.375-2.592-1.487
					c-0.69-0.116-2.35-0.392-3.016,0.674l-1.514-0.255c-0.28-1.225-1.939-1.509-2.628-1.625c-0.808-0.136-2.954-0.498-3.264,1.344
					c-0.246,1.461,0.878,2.872,2.507,3.147c1.629,0.275,3.154-0.69,3.4-2.151c0.017-0.103,0.024-0.199,0.027-0.292l1.295,0.218
					c-0.028,0.089-0.053,0.182-0.07,0.285c-0.246,1.461,0.878,2.872,2.507,3.147c1.628,0.274,3.153-0.69,3.4-2.151
					c0.026-0.153,0.029-0.292,0.023-0.425l4.197,0.707c0.573,0.096,1.097,0.391,1.477,0.83l0.31-0.268
					C358.023,200.948,357.413,200.604,356.746,200.492z M341.968,201.155c-1.406-0.237-2.38-1.437-2.171-2.675
					c0.17-1.008,1.005-1.31,2.792-1.008c1.787,0.301,2.477,0.86,2.307,1.868C344.687,200.577,343.374,201.392,341.968,201.155z
					 M349.126,202.361c-1.406-0.237-2.38-1.437-2.171-2.675c0.17-1.008,1.005-1.31,2.792-1.008c1.787,0.301,2.477,0.86,2.307,1.868
					C351.845,201.784,350.532,202.598,349.126,202.361z"/>
				<path style="fill:#263238;" d="M343.594,216.112l-0.023,2.502c0,0,0.758,2.497,7.537,2.423c6.778-0.074,7.352-3.063,7.352-3.063
					l0.017-1.819c0.012-1.309-1.171-2.298-2.458-2.053c-1.949,0.372-5.172,0.611-10.105-0.028
					C344.689,213.915,343.605,214.878,343.594,216.112z"/>
				<path style="fill:#F84A35;" d="M345.389,199.407c-0.885,1.43-1.962,2.731-3.2,3.869c0.611,0.619,1.461,0.943,2.329,0.889
					L345.389,199.407z"/>
			</g>
		</g>
		<g>
			<path style="fill:#DD8C6A;" d="M301.013,209.789c0,0-0.072-3.532-3.557-5.318c0,0-0.501-3.721-2.537-4.529
				c-2.036-0.808-4.841,3.638-4.841,3.638s0.627,5.185,4.579,6.492l4.306,2.402L301.013,209.789z"/>
			<g>
				<path style="fill:#e50d0e;" d="M303.173,211.676l-1.176-2.864c0,0-3.716,0.589-6.082,4.033l2.757,2.278L303.173,211.676z"/>
			</g>
			<path style="fill:#263238;" d="M303.14,211.087c6.57,8.815,14.699,13.473,14.699,13.473c11.134-4.292,20.385-3.45,20.385-3.45
				l-3.851,8.774c0,0-13.047,4.531-19.377,2.905c-5.015-1.288-13.684-13.099-17.071-17.953
				C299.972,212.518,302.244,211.445,303.14,211.087z"/>
		</g>
		<g>
			<path style="fill:#DD8C6A;" d="M383.777,261.558c0,0-2.157,2.798-0.559,6.374c0,0-1.94,3.214-0.86,5.12
				c1.081,1.905,6.053,0.197,6.053,0.197s2.759-4.434,0.499-7.929l-1.851-4.57L383.777,261.558z"/>
			<g>
				<path style="fill:#e50d0e;" d="M383.275,258.734l-0.878,2.97c0,0,3.266,1.869,7.267,0.667l-0.722-3.503L383.275,258.734z"/>
			</g>
			<path style="fill:#263238;" d="M382.932,259.214c0.401-10.987-3.017-19.71-3.017-19.71s-13.292-7.911-17.399-12.164
				c-2.355-2.439-1.7-6.453,1.307-8.019v0c1.701-0.886,3.753-0.74,5.307,0.384c4.852,3.508,15.193,11.205,18.157,15.166
				c3.102,4.146,2.46,18.782,2.059,24.688C386.297,260.083,383.855,259.497,382.932,259.214z"/>
			<path style="fill:#263238;" d="M382.932,259.214c0.401-10.987-3.017-19.71-3.017-19.71s-13.292-7.911-17.399-12.164
				c-2.355-2.439-1.7-6.453,1.307-8.019v0c1.701-0.886,3.753-0.74,5.307,0.384c4.852,3.508,15.193,11.205,18.157,15.166
				c3.102,4.146,2.46,18.782,2.059,24.688C386.297,260.083,383.855,259.497,382.932,259.214z"/>
		</g>
	</g>
</g>
<g id="Character_1_1_">
	<g>
		<g>
			<g>
				<g>
					<polygon style="fill:#e50d0e;" points="162.55,297.333 169.184,329.025 157.64,329.611 					"/>
					<polygon style="opacity:0.6;fill:#FFFFFF;" points="162.55,297.333 169.184,329.025 157.64,329.611 					"/>
				</g>
				<g>
					<g>
						<polygon style="fill:#FFB573;" points="179.613,395.423 179.218,408.97 172.934,408.913 172.245,394.732 						"/>
						<polygon style="opacity:0.1;" points="172.678,403.646 172.515,400.301 179.477,400.089 179.371,403.708 						"/>
						<g>
							<path style="fill:#e50d0e;" d="M180.405,408.689c-0.067-0.016-0.118-0.074-0.133-0.147c-0.013-0.074,0.018-0.148,0.076-0.185
								c0.104-0.066,2.47-1.548,3.615-1.199c0.214,0.061,0.398,0.211,0.516,0.418c0.156,0.229,0.166,0.539,0.023,0.773
								c-0.276,0.4-1.153,0.567-2.003,0.563C181.798,408.905,181.097,408.83,180.405,408.689z M180.927,408.453
								c1.274,0.179,2.999,0.175,3.31-0.312c0.045-0.06,0.086-0.167-0.037-0.388c-0.068-0.132-0.186-0.224-0.321-0.25
								c-0.101-0.031-0.205-0.047-0.31-0.046C182.636,407.602,181.74,407.939,180.927,408.453z"/>
							<path style="fill:#e50d0e;" d="M180.319,408.678c-0.049-0.035-0.078-0.097-0.074-0.161c0.008-0.094,0.169-2.114,1.029-2.893
								c0.247-0.23,0.571-0.338,0.896-0.298c0.446,0.051,0.588,0.298,0.607,0.501c0.156,0.842-1.466,2.459-2.279,2.853
								c-0.021,0.011-0.045,0.013-0.067,0.006C180.394,408.699,180.354,408.696,180.319,408.678z M182.066,405.661
								c-0.205-0.003-0.402,0.075-0.556,0.22c-0.502,0.642-0.809,1.442-0.881,2.291c0.841-0.546,1.902-1.811,1.854-2.318
								c-0.012-0.046-0.033-0.174-0.324-0.202L182.066,405.661L182.066,405.661z"/>
							<path style="fill:#263238;" d="M179.696,407.635l-7.459-0.034c-0.281-0.001-0.524,0.211-0.584,0.512l-1.328,6.689
								c-0.122,0.596,0.217,1.192,0.759,1.332c0.07,0.018,0.14,0.028,0.212,0.029c2.706-0.04,5.112-0.192,8.481-0.172
								c3.976,0.019,2.974,0.54,7.651,0.635c2.818,0.054,3.268-3.471,2.073-3.65c-5.463-0.78-6.053-2.592-8.177-4.739
								C180.863,407.826,180.284,407.612,179.696,407.635z"/>
						</g>
					</g>
					<g>
						<polygon style="fill:#FFB573;" points="147.037,393.105 143.436,406.081 137.38,404.423 140.078,390.58 						"/>
						<polygon style="opacity:0.1;" points="144.764,401.297 138.294,399.733 139.322,394.455 146.245,395.957 						"/>
						<g>
							<path style="fill:#e50d0e;" d="M144.406,406.675c-0.062-0.028-0.103-0.095-0.103-0.169c0.001-0.075,0.045-0.141,0.109-0.166
								c0.115-0.044,2.711-1.043,3.77-0.482c0.198,0.101,0.352,0.284,0.429,0.508c0.111,0.254,0.063,0.56-0.12,0.761
								c-0.345,0.339-1.237,0.334-2.071,0.167C145.733,407.153,145.059,406.945,144.406,406.675z M144.962,406.544
								c1.217,0.419,2.911,0.746,3.306,0.329c0.055-0.05,0.115-0.147,0.035-0.388c-0.042-0.142-0.141-0.255-0.269-0.306
								c-0.093-0.05-0.193-0.085-0.296-0.104C146.796,406.038,145.855,406.197,144.962,406.544z"/>
							<path style="fill:#e50d0e;" d="M144.324,406.648c-0.042-0.044-0.058-0.11-0.043-0.172c0.025-0.091,0.557-2.038,1.545-2.635
								c0.285-0.178,0.622-0.221,0.935-0.121c0.428,0.135,0.522,0.404,0.503,0.607c-0.003,0.854-1.894,2.128-2.764,2.358
								c-0.023,0.007-0.047,0.005-0.067-0.007C144.394,406.682,144.355,406.672,144.324,406.648z M146.596,404.028
								c-0.2-0.042-0.409-0.004-0.586,0.109c-0.611,0.533-1.061,1.257-1.289,2.075c0.926-0.373,2.202-1.409,2.248-1.915
								c-0.004-0.047-0.001-0.176-0.281-0.26L146.596,404.028L146.596,404.028z"/>
							<path style="fill:#263238;" d="M143.906,405.508l-7.3-1.46c-0.275-0.055-0.552,0.106-0.666,0.389l-2.533,6.284
								c-0.23,0.559-0.008,1.207,0.495,1.447c0.064,0.031,0.132,0.054,0.201,0.069c2.654,0.482,5.037,0.796,8.334,1.465
								c3.896,0.786,2.817,1.103,7.392,2.099c2.761,0.598,3.858-2.771,2.715-3.177c-5.224-1.817-5.467-3.705-7.154-6.215
								C145.015,405.918,144.487,405.597,143.906,405.508z"/>
						</g>
					</g>
					<path style="fill:#e50d0e;" d="M174.881,278.487c0,0,7.017,53.357,7.739,70.367c0.565,13.314-0.199,49.513-0.199,49.513
						l-11.253-0.103l-0.226-4.654c-1.476-30.451-5.469-60.733-11.939-90.542l-5.043-23.233L174.881,278.487z"/>
					<path style="fill:#263238;" d="M174.881,278.487c0,0,7.017,53.357,7.739,70.367c0.565,13.314-0.199,49.513-0.199,49.513
						l-11.253-0.103l-0.226-4.654c-1.476-30.451-5.469-60.733-11.939-90.542l-5.043-23.233L174.881,278.487z"/>
					<path style="opacity:0.1;" d="M159.604,313.134l4.648-21.947l0.69,2.822c3.282,13.422,3.94,27.339,1.936,41.003l-0.845,5.765
						C165.356,337.701,162.305,321.02,159.604,313.134z"/>
					<path style="fill:#263238;" d="M167.432,278.66c0,0-3.726,64.941-5.628,74.906c-2.238,11.73-14.486,42.624-14.486,42.624
						l-8.676-2.347c0,0,3.768-23.879,6.1-38.076c1.984-12.078,2.64-32.794,3.118-46.376c0,0-3.015-22.537-0.947-28.359
						L167.432,278.66z"/>
					<path style="fill:#263238;" d="M167.432,278.66c0,0-3.726,64.941-5.628,74.906c-2.238,11.73-14.486,42.624-14.486,42.624
						l-8.676-2.347c0,0,3.768-23.879,6.1-38.076c1.984-12.078,2.64-32.794,3.118-46.376c0,0-3.015-22.537-0.947-28.359
						L167.432,278.66z"/>
					<g>
						<polygon style="fill:#e50d0e;" points="150.789,394.393 148.409,399.431 136.126,395.735 136.722,391.276 						"/>
					</g>
					<g>
						<g>
							<polygon style="fill:#e50d0e;" points="183.596,395.803 183.226,401.306 169.538,401.053 169.161,395.889 							"/>
						</g>
					</g>
				</g>
				<path style="fill:#FFB573;" d="M199.663,213.986l2.203-3.832l4.501-3.191c0.797-0.565,1.199-1.541,1.035-2.514l-0.526-3.126
					c-0.227-1.347-1.458-2.296-2.809-2.164l-1.12,0.109c-1.171,0.114-2.106,1.015-2.268,2.185l0,0
					c-0.079,0.574-0.349,1.102-0.767,1.499l-0.625,0.594c-0.554,0.527-0.842,1.278-0.784,2.047l0.122,1.619l-2.683,4.514
					L199.663,213.986z"/>
				<g>
					<polygon style="fill:#263238;" points="200.772,213.924 201.953,211.642 196.766,208.432 195.639,211.025 					"/>
					<polygon style="opacity:0.7;fill:#FFFFFF;" points="200.772,213.924 201.953,211.642 196.766,208.432 195.639,211.025 					"/>
				</g>
				<g>
					<path style="fill:#263238;" d="M164.35,228.661l8.414,0.142c8.364-1.479,15.576-6.682,19.718-14.014l3.08-5.452l6.373,4.322
						l-6.557,12.27c-3.151,5.916-8.171,7.877-10.697,8.322l-18.543,4.892L164.35,228.661z"/>
				</g>
				<path style="opacity:0.5;fill:#FFFFFF;" d="M164.35,228.661l8.414,0.142c8.364-1.479,15.576-6.682,19.718-14.014l3.08-5.452
					l6.373,4.322l-6.557,12.27c-3.151,5.916-8.171,7.877-10.697,8.322l-18.543,4.892L164.35,228.661z"/>
				<polygon style="opacity:0.2;" points="185.768,233.846 166.991,239.021 166.798,237.199 170.062,236.462 				"/>
				<path style="fill:#FFFFFF;" d="M174.383,238.648l1.959,40.93l0,0c-8.862,2.722-13.844,2.771-27.424,2.786l-3.148-0.301
					l-5.498-42.602c-0.34-2.739,1.438-5.299,4.146-5.97l19.754-4.889l5.092,0.734C172.658,228.498,174.225,235.195,174.383,238.648z
					"/>
				<g>
					<g>
						<path style="fill:#FFB573;" d="M121.668,280.231l-3.652,3.034c0,0-3.621,1.125-4.086,3.265
							c-0.282,1.296,1.383,2.556,2.741,3.348c1.049,0.613,2.351,0.645,3.42,0.069c1.509-0.813,3.097-3.599,3.097-3.599l1.955-3.927
							L121.668,280.231z"/>
						<path style="fill:#FFB573;" d="M121.691,280.233c0.187-0.329,4.476-6.307,4.476-6.307l3.331,2.209l-5.119,7.433
							C124.378,283.569,120.258,282.761,121.691,280.233z"/>
					</g>
					<g>
						<polygon points="122.169,277.957 121.069,279.855 125.673,283.092 127.147,280.753 						"/>
						<polygon style="opacity:0.7;fill:#FFFFFF;" points="122.169,277.957 121.069,279.855 125.673,283.092 127.147,280.753 						
							"/>
					</g>
					<g>
						<path style="fill:#263238;" d="M139.312,238.271l-6.85,24.299l-11.251,15.406l6.048,3.734l14.494-16.073l7.771-23.129
							c0,0,0.165-9.932-5.694-8.528C141.689,234.493,140.03,236.191,139.312,238.271z"/>
						<path style="opacity:0.5;fill:#FFFFFF;" d="M139.312,238.271l-6.85,24.299l-11.251,15.406l6.048,3.734l14.494-16.073
							l7.771-23.129c0,0,0.165-9.932-5.694-8.528C141.689,234.493,140.03,236.191,139.312,238.271z"/>
						<g>
							<polygon style="opacity:0.2;" points="141.752,265.637 142.167,264.402 142.304,250.191 138.928,268.77 							"/>
						</g>
					</g>
					<g>
						<path style="fill:#263238;" d="M151.645,283.114c-0.013,0.534-0.026,1.075-0.038,1.632l0,0.031
							c-0.023,0.824-0.047,1.672-0.07,2.535l-10.211-0.094c0.159-1.961,0.287-3.922,0.391-5.883c0.009-0.11,0.018-0.22,0.019-0.322
							c0.075-1.326,0.134-2.644,0.178-3.962c0.46-12.539-0.091-25.111-1.641-37.591c-0.029-0.236-0.043-0.479-0.041-0.715
							c0.023-2.457,1.715-4.647,4.185-5.252l6.286-1.559c0,0,0.285,8.307,0.557,18.012c0.272,9.689,0.547,20.775,0.512,26.316
							C151.762,278.107,151.717,280.445,151.645,283.114z"/>
					</g>
					<path style="opacity:0.5;fill:#FFFFFF;" d="M151.645,283.114c-0.013,0.534-0.026,1.075-0.038,1.632l0,0.031
						c-0.023,0.824-0.047,1.672-0.07,2.535l-10.211-0.094c0.159-1.961,0.287-3.922,0.391-5.883c0.009-0.11,0.018-0.22,0.019-0.322
						c0.075-1.326,0.134-2.644,0.178-3.962c0.46-12.539-0.091-25.111-1.641-37.591c-0.029-0.236-0.043-0.479-0.041-0.715
						c0.023-2.457,1.715-4.647,4.185-5.252l6.286-1.559c0,0,0.285,8.307,0.557,18.012c0.272,9.689,0.547,20.775,0.512,26.316
						C151.762,278.107,151.717,280.445,151.645,283.114z"/>
				</g>
				<g>
					<path style="fill:#263238;" d="M178.483,283.038l-9.299,2.08l-5.013-56.515l5.095,0.738c3.391-0.84,4.954,5.854,5.119,9.309
						l0.607,13.428c0.025,0.652,0.059,1.296,0.1,1.948c0.019,0.487,0.054,0.974,0.081,1.461c0.055,0.832,0.11,1.673,0.165,2.505
						c0.041,0.621,0.091,1.241,0.14,1.862c0.204,2.592,0.455,5.177,0.745,7.762c0.283,2.522,0.613,5.045,0.982,7.56
						c0.014,0.126,0.037,0.251,0.051,0.385c0.355,2.405,0.749,4.803,1.182,7.193C178.446,282.849,178.469,282.944,178.483,283.038z"
						/>
				</g>
				<g style="opacity:0.5;">
					<path style="fill:#FFFFFF;" d="M178.483,283.038l-9.299,2.08l-5.013-56.515l5.095,0.738c3.391-0.84,4.954,5.854,5.119,9.309
						l0.607,13.428c0.025,0.652,0.059,1.296,0.1,1.948c0.019,0.487,0.054,0.974,0.081,1.461c0.055,0.832,0.11,1.673,0.165,2.505
						c0.041,0.621,0.091,1.241,0.14,1.862c0.204,2.592,0.455,5.177,0.745,7.762c0.283,2.522,0.613,5.045,0.982,7.56
						c0.014,0.126,0.037,0.251,0.051,0.385c0.355,2.405,0.749,4.803,1.182,7.193C178.446,282.849,178.469,282.944,178.483,283.038z"
						/>
				</g>
				<g>
					<polygon style="fill:#263238;" points="162.904,232.976 159.626,238.114 154.221,234.772 155.442,232.908 161.314,232.045 
											"/>
					<polygon style="opacity:0.5;fill:#FFFFFF;" points="162.904,232.976 159.626,238.114 154.221,234.772 155.442,232.908 
						161.314,232.045 					"/>
				</g>
				<g>
					<g>
						<path style="fill:#263238;" d="M162.921,208.402c0,0-0.247-6.47-5.576-3.44L162.921,208.402z"/>
						<path style="opacity:0.7;fill:#FFFFFF;" d="M162.921,208.402c0,0-0.247-6.47-5.576-3.44L162.921,208.402z"/>
					</g>
					<path style="fill:#FFB573;" d="M162.059,231.543l-1.734,2.149l-2.921,0.43l-4.71-1.454c0.018-0.073,0.036-0.146,0.063-0.218
						c1.273-3.287-0.185-9.006-1.306-12.267l8.174,5.203C159.358,227.758,159.779,230.316,162.059,231.543z"/>
					<path style="opacity:0.1;" d="M156.474,224.537c0,0,1.549,0.355,3.147,0.877c-0.124,1.126-0.089,2.292,0.224,3.337
						c-3.933,0.408-6.077-2.038-7.081-3.756c-0.101-0.502-0.213-0.997-0.332-1.479L156.474,224.537z"/>
					<path style="fill:#FFB573;" d="M148.864,214.25c1.445,5.285,2.025,8.445,5.332,10.63c4.97,3.296,11.14-0.531,11.313-6.118
						c0.156-5.067-2.241-12.831-7.982-13.879c-4.094-0.769-8.043,1.888-8.82,5.934C148.488,211.958,148.542,213.133,148.864,214.25z
						"/>
					<g>
						<path style="fill:#263238;" d="M164.516,210.164c0.014-0.399-0.204-1.282-1.174-0.943c0,0-0.84-1.016-1.545-0.072
							c0,0-1.152-0.019-1.116,0.727c0.046,0.966,0.907,0.199,2.068,0.473C163.837,210.606,164.491,210.847,164.516,210.164z"/>
						<path style="opacity:0.6;fill:#FFFFFF;" d="M164.516,210.164c0.014-0.399-0.204-1.282-1.174-0.943c0,0-0.84-1.016-1.545-0.072
							c0,0-1.152-0.019-1.116,0.727c0.046,0.966,0.907,0.199,2.068,0.473C163.837,210.606,164.491,210.847,164.516,210.164z"/>
					</g>
					<g>
						<path style="fill:#263238;" d="M155.232,212.265c-0.213-0.338-0.467-1.21,0.547-1.397c0,0,0.221-1.294,1.307-0.827
							c0,0,0.991-0.586,1.335,0.077c0.444,0.858-0.688,0.621-1.56,1.433C156.044,212.312,155.596,212.844,155.232,212.265z"/>
						<path style="opacity:0.6;fill:#FFFFFF;" d="M155.232,212.265c-0.213-0.338-0.467-1.21,0.547-1.397
							c0,0,0.221-1.294,1.307-0.827c0,0,0.991-0.586,1.335,0.077c0.444,0.858-0.688,0.621-1.56,1.433
							C156.044,212.312,155.596,212.844,155.232,212.265z"/>
					</g>
					<g>
						<path style="fill:#ED893E;" d="M161.614,212.974c0.903,1.151,1.964,2.174,3.15,3.038c-0.574,0.932-1.951,0.99-1.951,0.99
							L161.614,212.974z"/>
					</g>
					<path style="fill:#263238;" d="M155.722,202.218c-1.594-0.524-5.357,0.08-6.21,1.525c-2.207-0.189-4.792,1.561-5.241,3.73
						c-0.232,1.12,0.137,2.523,1.221,2.888c-0.83,0.558-1.747,1.289-2.396,2.05c-0.649,0.76-1.093,1.751-0.983,2.745
						c0.11,0.993,0.884,1.94,1.879,2.038c-0.48,0.889-0.814,1.616-1.02,2.605c-0.206,0.99-0.094,2.093,0.531,2.888
						c0.625,0.794,1.837,1.154,2.7,0.627c0.159,0,0.452-0.036,0.611-0.036c-0.118,0.496,0.152,1.057,0.613,1.275
						c0.461,0.218,1.066,0.069,1.374-0.338c0.313-0.414,0.486-1.125,1.001-1.069c0.141,0.623,0.274,1.48,0.892,1.644
						c0.618,0.163,1.319-0.043,1.749-0.515c-0.698-1.939,1.373-4.8,0.675-6.74c-0.545-1.515-1.095-3.052-1.223-4.657
						s-2.48-2.554-1.421-3.767c1.059-1.213,2.785-1.699,4.217-0.962c0.011-1.154,0.647-1.108,0.647-1.108
						c0.212-0.121,1.198-0.321,1.686,0.194c-0.143-0.341,0.345-0.872,0.911-0.105c0.088-0.169-0.106-0.484,0.168-0.592
						c0.304-0.046,0.395,0.118,0.678,0.202C158.714,206.335,157.316,202.742,155.722,202.218z"/>
					<path style="opacity:0.7;fill:#FFFFFF;" d="M155.722,202.218c-1.594-0.524-5.357,0.08-6.21,1.525
						c-2.207-0.189-4.792,1.561-5.241,3.73c-0.232,1.12,0.137,2.523,1.221,2.888c-0.83,0.558-1.747,1.289-2.396,2.05
						c-0.649,0.76-1.093,1.751-0.983,2.745c0.11,0.993,0.884,1.94,1.879,2.038c-0.48,0.889-0.814,1.616-1.02,2.605
						c-0.206,0.99-0.094,2.093,0.531,2.888c0.625,0.794,1.837,1.154,2.7,0.627c0.159,0,0.452-0.036,0.611-0.036
						c-0.118,0.496,0.152,1.057,0.613,1.275c0.461,0.218,1.066,0.069,1.374-0.338c0.313-0.414,0.486-1.125,1.001-1.069
						c0.141,0.623,0.274,1.48,0.892,1.644c0.618,0.163,1.319-0.043,1.749-0.515c-0.698-1.939,1.373-4.8,0.675-6.74
						c-0.545-1.515-1.095-3.052-1.223-4.657s-2.48-2.554-1.421-3.767c1.059-1.213,2.785-1.699,4.217-0.962
						c0.011-1.154,0.647-1.108,0.647-1.108c0.212-0.121,1.198-0.321,1.686,0.194c-0.143-0.341,0.345-0.872,0.911-0.105
						c0.088-0.169-0.106-0.484,0.168-0.592c0.304-0.046,0.395,0.118,0.678,0.202C158.714,206.335,157.316,202.742,155.722,202.218z"
						/>
					<g>
						<g>
							<path style="fill:#263238;" d="M163.93,216.97c-1.607-0.197-4.135,0.123-7.663,2.342c0,0-1.748,0.413-3.011-1.651
								l-0.877-1.434l-1.179,0.63l-0.26,4.515c0,0,1.689,4.344,3.057,4.357c0,0,1.815,2.018,4.218,1.121
								c0,0,4.884,0.959,5.428-1.365c0,0,2.704,1.279,1.978-2.43c0,0,0.473-0.732,0.497-3.616
								C166.129,218.18,165.18,217.123,163.93,216.97z"/>
						</g>
						<g style="opacity:0.7;">
							<path style="fill:#FFFFFF;" d="M163.93,216.97c-1.607-0.197-4.135,0.123-7.663,2.342c0,0-1.748,0.413-3.011-1.651
								l-0.877-1.434l-1.179,0.63l-0.26,4.515c0,0,1.689,4.344,3.057,4.357c0,0,1.815,2.018,4.218,1.121
								c0,0,4.884,0.959,5.428-1.365c0,0,2.704,1.279,1.978-2.43c0,0,0.473-0.732,0.497-3.616
								C166.129,218.18,165.18,217.123,163.93,216.97z"/>
						</g>
					</g>
					<path style="opacity:0.1;" d="M164.202,219.569c-0.572-0.134-1.046-0.507-1.405-0.973c-0.094,0.411-0.498,0.687-0.897,0.554
						c-0.318,0.387-0.646,0.783-1.084,1.027s-1.016,0.302-1.423,0.012c0.376,0.463,0.825,0.722,1.421,0.719
						c0.596-0.003,1.185-0.289,1.556-0.755c0.341,0.258,0.859,0.139,1.081-0.227c0.417,0.378,1.104,0.362,1.484-0.053
						c-0.099,0.105-0.323,0.045-0.461,0.003C164.338,219.834,164.227,219.711,164.202,219.569z"/>
					<path style="fill:#263238;" d="M158.704,212.611c0.104,0.425-0.032,0.828-0.304,0.901c-0.273,0.073-0.593-0.218-0.705-0.64
						c-0.112-0.421,0.032-0.828,0.304-0.901C158.271,211.898,158.578,212.215,158.704,212.611z"/>
					<path style="fill:#263238;" d="M163.71,211.743c0.105,0.425-0.032,0.828-0.304,0.901c-0.273,0.073-0.593-0.218-0.705-0.64
						c-0.112-0.421,0.032-0.828,0.305-0.901C163.278,211.03,163.585,211.346,163.71,211.743z"/>
				</g>
				<g>
					<polygon style="fill:#263238;" points="165.277,228.39 162.029,227.899 158.007,232.003 150.265,230.153 148.335,232.44 
						155.717,237.002 158.288,233.165 162.405,235.565 					"/>
					<polygon style="opacity:0.7;fill:#FFFFFF;" points="165.277,228.39 162.029,227.899 158.007,232.003 150.265,230.153 
						148.335,232.44 155.717,237.002 158.288,233.165 162.405,235.565 					"/>
				</g>
				<line style="opacity:0.2;" x1="139.154" y1="269.043" x2="142.167" y2="265.094"/>
			</g>
			<g>
				<g>
					<g>
						
							<rect x="108.018" y="279.181" transform="matrix(0.6449 -0.7643 0.7643 0.6449 -180.8863 191.4248)" style="fill:#e50d0e;" width="15.044" height="22.349"/>
						
							<rect x="108.018" y="279.181" transform="matrix(0.6449 -0.7643 0.7643 0.6449 -180.8863 191.4248)" style="opacity:0.2;" width="15.044" height="22.349"/>
						
							<rect x="106.614" y="280.845" transform="matrix(0.6449 -0.7643 0.7643 0.6449 -182.6568 190.9426)" style="fill:#e50d0e;" width="15.044" height="22.349"/>
						
							<rect x="106.614" y="280.845" transform="matrix(0.6449 -0.7643 0.7643 0.6449 -182.6568 190.9426)" style="opacity:0.2;" width="15.044" height="22.349"/>
					</g>
					<path style="fill:#FFFFFF;" d="M112.577,285.782l-4.728,5.604c-0.322,0.382-0.894,0.431-1.276,0.108l-1.503-1.268
						c-0.382-0.322-0.431-0.893-0.108-1.276l4.728-5.604c0.322-0.382,0.894-0.43,1.276-0.108l1.503,1.268
						C112.851,284.829,112.899,285.4,112.577,285.782z"/>
				</g>
				<polygon style="fill:#FFFFFF;" points="128.331,291.841 127.506,292.856 111.077,278.994 111.824,278.076 				"/>
				<g>
					<polygon style="fill:#263238;" points="111.585,285.47 107.749,290.117 107.266,289.708 111.155,285.107 					"/>
				</g>
			</g>
		</g>
		<g>
			<path style="fill:#263238;" d="M148.921,216.102l0.309,0.249c0.333-0.46,1.411-1.84,1.947-1.969l3.928-0.946
				c0.002,0.133,0.014,0.272,0.048,0.423c0.321,1.444,1.822,2.32,3.346,1.953c1.524-0.367,2.503-1.84,2.182-3.284
				c-0.023-0.101-0.052-0.193-0.084-0.281l1.212-0.292c0.008,0.093,0.021,0.189,0.043,0.29c0.321,1.444,1.822,2.32,3.346,1.953
				c1.524-0.367,2.503-1.84,2.182-3.285c-0.405-1.821-2.413-1.337-3.169-1.155c-0.645,0.156-2.198,0.534-2.389,1.772l-1.417,0.341
				c-0.694-1.025-2.249-0.656-2.894-0.5c-0.62,0.149-2.082,0.504-2.363,1.632l-4.06,0.978
				C150.465,214.134,149.308,215.567,148.921,216.102z M162.23,212.156c-0.222-0.997,0.397-1.594,2.07-1.996
				c1.673-0.403,2.481-0.15,2.702,0.847c0.272,1.224-0.577,2.477-1.893,2.794C163.794,214.117,162.502,213.379,162.23,212.156z
				 M155.531,213.769c-0.222-0.997,0.397-1.593,2.07-1.996c1.673-0.403,2.481-0.15,2.702,0.847c0.272,1.223-0.577,2.477-1.893,2.794
				C157.095,215.731,155.803,214.993,155.531,213.769z"/>
		</g>
	</g>
</g>
<g id="Lamp">
	<g>
		<g>
			<g>
				<g>
					<g>
						<path style="fill:#e50d0e;" d="M318.419,153.084c-0.222-38.118-31.303-68.839-69.421-68.617
							c-38.118,0.222-68.838,31.303-68.617,69.421c0.161,27.65,22.273,46.24,36.31,68.048c4.348,6.755,4.021,32.112,4.021,32.112
							l58.546-0.341c0,0-0.622-25.351,3.647-32.157C296.686,199.579,318.58,180.734,318.419,153.084z"/>
						<path style="opacity:0.5;fill:#FFFFFF;" d="M318.419,153.084c-0.222-38.118-31.303-68.839-69.421-68.617
							c-38.118,0.222-68.838,31.303-68.617,69.421c0.161,27.65,22.273,46.24,36.31,68.048c4.348,6.755,4.021,32.112,4.021,32.112
							l58.546-0.341c0,0-0.622-25.351,3.647-32.157C296.686,199.579,318.58,180.734,318.419,153.084z"/>
					</g>
				</g>
				<path style="opacity:0.3;fill:#FFFFFF;" d="M310.224,140.326c0.04,43.441-27.121,92.705-60.682,92.736
					c-33.561,0.031-60.818-55-60.853-92.624c-0.022-23.177,27.168-41.99,60.729-42.021
					C282.979,98.386,310.203,117.149,310.224,140.326z"/>
				<path style="opacity:0.4;fill:#FFFFFF;" d="M288.86,182.648c0.02,21.608-17.48,39.14-39.088,39.16
					c-21.608,0.02-39.14-17.48-39.16-39.088c-0.02-21.607,17.48-39.14,39.088-39.16C271.308,143.54,288.841,161.04,288.86,182.648z"
					/>
				<path style="opacity:0.4;fill:#FFFFFF;" d="M276.92,192.546c0.014,15.179-12.287,19.807-27.466,19.82
					c-15.179,0.014-27.488-4.591-27.502-19.77c-0.014-15.179,12.287-19.604,27.466-19.618
					C264.597,172.965,276.906,177.367,276.92,192.546z"/>
			</g>
			<g>
				<g>
					<polygon style="fill:#e50d0e;" points="265.734,304.59 232.814,304.589 223.669,292.633 274.88,292.634 					"/>
					<polygon style="opacity:0.5;fill:#FFFFFF;" points="265.734,304.59 232.814,304.589 223.669,292.633 274.88,292.634 					"/>
				</g>
				<g>
					<path style="fill:#e50d0e;" d="M217.75,245.814L217.75,245.814c-0.007-1.199,0.959-2.176,2.158-2.182l58.51-0.306
						c1.197-0.006,2.173,0.959,2.18,2.156l0,0c0.007,1.199-0.959,2.176-2.158,2.182l-58.51,0.306
						C218.733,247.977,217.757,247.012,217.75,245.814z"/>
				</g>
				<g>
					<g>
						<path style="fill:#e50d0e;" d="M285.792,254.902c-0.009,4.41-3.579,7.972-7.973,7.979l-8.115,0.014
							c-0.57,0.145-1.191,0.225-1.814,0.224l-46.886,0.077c-4.41,0.007-7.988-3.563-7.995-7.973
							c0.011-4.345,3.467-7.871,7.792-7.974l0.18-0.004l8.115-0.014c0.522-0.127,1.077-0.206,1.634-0.219l0.18-0.004l46.886-0.076
							C282.207,246.922,285.784,250.492,285.792,254.902z"/>
					</g>
					<g>
						<path style="fill:#e50d0e;" d="M285.792,254.902c-0.009,4.41-3.579,7.972-7.973,7.979l-8.115,0.014
							c-0.57,0.145-1.191,0.225-1.814,0.224l-46.886,0.077c-4.41,0.007-7.988-3.563-7.995-7.973
							c0.011-4.345,3.467-7.871,7.792-7.974l0.18-0.004l8.115-0.014c0.522-0.127,1.077-0.206,1.634-0.219l0.18-0.004l46.886-0.076
							C282.207,246.922,285.784,250.492,285.792,254.902z"/>
					</g>
					<g style="opacity:0.2;">
						<path style="fill:#FFFFFF;" d="M285.792,254.902c-0.009,4.41-3.579,7.972-7.973,7.979l-8.115,0.014
							c-0.57,0.145-1.191,0.225-1.814,0.224l-46.886,0.077c-4.41,0.007-7.988-3.563-7.995-7.973
							c0.011-4.345,3.467-7.871,7.792-7.974l0.18-0.004l8.115-0.014c0.522-0.127,1.077-0.206,1.634-0.219l0.18-0.004l46.886-0.076
							C282.207,246.922,285.784,250.492,285.792,254.902z"/>
					</g>
				</g>
				<g>
					<path style="fill:#e50d0e;" d="M283.005,270.449c-0.001,4.41-3.315,7.965-7.401,7.965l-7.546,0.001
						c-0.53,0.144-1.107,0.224-1.687,0.221l-43.601-0.003c-4.101,0-7.434-3.576-7.448-7.986c0.003-4.345,3.211-7.864,7.233-7.961
						l0.168-0.004l7.546-0.001c0.485-0.127,1.001-0.204,1.519-0.217l0.167-0.004l43.602,0.003
						C279.658,262.464,282.991,266.04,283.005,270.449z"/>
					<path style="opacity:0.3;fill:#FFFFFF;" d="M283.005,270.449c-0.001,4.41-3.315,7.965-7.401,7.965l-7.546,0.001
						c-0.53,0.144-1.107,0.224-1.687,0.221l-43.601-0.003c-4.101,0-7.434-3.576-7.448-7.986c0.003-4.345,3.211-7.864,7.233-7.961
						l0.168-0.004l7.546-0.001c0.485-0.127,1.001-0.204,1.519-0.217l0.167-0.004l43.602,0.003
						C279.658,262.464,282.991,266.04,283.005,270.449z"/>
				</g>
				<g>
					<path style="fill:#e50d0e;" d="M280.219,285.597c0.007,4.41-3.051,7.959-6.829,7.951l-6.978-0.013
						c-0.49,0.143-1.024,0.221-1.56,0.218l-40.317-0.081c-3.792-0.007-6.88-3.589-6.902-7.999c-0.005-4.344,2.955-7.858,6.674-7.948
						l0.155-0.004l6.978,0.013c0.448-0.126,0.925-0.203,1.405-0.214l0.155-0.004l40.317,0.081
						C277.109,277.605,280.198,281.187,280.219,285.597z"/>
					<path style="opacity:0.4;fill:#FFFFFF;" d="M280.219,285.597c0.007,4.41-3.051,7.959-6.829,7.951l-6.978-0.013
						c-0.49,0.143-1.024,0.221-1.56,0.218l-40.317-0.081c-3.792-0.007-6.88-3.589-6.902-7.999c-0.005-4.344,2.955-7.858,6.674-7.948
						l0.155-0.004l6.978,0.013c0.448-0.126,0.925-0.203,1.405-0.214l0.155-0.004l40.317,0.081
						C277.109,277.605,280.198,281.187,280.219,285.597z"/>
				</g>
				<g>
					<path style="fill:#e50d0e;" d="M222.246,295.805L222.246,295.805c-0.007-1.201,0.964-2.179,2.165-2.182l49.508-0.1
						c1.195-0.002,2.166,0.962,2.173,2.156v0c0.007,1.201-0.964,2.179-2.165,2.182l-49.508,0.1
						C223.225,297.964,222.253,297,222.246,295.805z"/>
				</g>
			</g>
		</g>
		<g>
			<g>
				<path style="fill:#263238;" d="M237.524,147.556l-4.195,2.33c0.261,1.34,0.615,2.647,1.05,3.916l4.791-0.079
					c0.861,2.096,1.997,4.047,3.363,5.813l-2.464,4.109c0.89,1.021,1.849,1.979,2.869,2.869l4.109-2.464
					c1.766,1.366,3.717,2.503,5.813,3.364l-0.079,4.791c1.269,0.435,2.576,0.789,3.916,1.05l2.33-4.195
					c1.099,0.147,2.218,0.23,3.357,0.23c1.139,0,2.258-0.083,3.357-0.23l2.33,4.195c1.34-0.261,2.647-0.615,3.916-1.05l-0.079-4.791
					c2.095-0.861,4.047-1.997,5.813-3.364l4.109,2.464c1.021-0.89,1.979-1.849,2.869-2.869l-2.464-4.109
					c1.366-1.766,2.503-3.717,3.363-5.813l4.791,0.079c0.435-1.269,0.789-2.575,1.05-3.916l-4.195-2.33
					c0.147-1.099,0.23-2.218,0.23-3.357c0-1.139-0.083-2.258-0.23-3.357l4.195-2.33c-0.261-1.34-0.615-2.647-1.05-3.916
					l-4.791,0.079c-0.861-2.095-1.997-4.047-3.364-5.813l2.464-4.109c-0.89-1.021-1.849-1.979-2.869-2.869l-4.109,2.464
					c-1.766-1.366-3.717-2.503-5.813-3.363l0.079-4.791c-1.269-0.435-2.576-0.789-3.916-1.05l-2.33,4.195
					c-1.099-0.147-2.218-0.23-3.357-0.23c-1.139,0-2.258,0.083-3.357,0.23l-2.33-4.195c-1.34,0.261-2.647,0.615-3.916,1.05
					l0.079,4.791c-2.095,0.861-4.047,1.997-5.813,3.363l-4.109-2.464c-1.021,0.89-1.979,1.849-2.869,2.869l2.464,4.109
					c-1.366,1.766-2.503,3.717-3.363,5.813l-4.791-0.079c-0.435,1.269-0.789,2.576-1.05,3.916l4.195,2.33
					c-0.147,1.099-0.23,2.218-0.23,3.357C237.294,145.339,237.377,146.458,237.524,147.556z M248.936,144.8
					c0-7.538,6.11-13.648,13.648-13.648c7.538,0,13.648,6.111,13.648,13.648c0,7.538-6.11,13.648-13.648,13.648
					C255.046,158.448,248.936,152.337,248.936,144.8z"/>
			</g>
			<g>
				<path style="fill:#263238;" d="M216.393,183.557l-4.632,2.573c0.152,0.723,0.345,1.431,0.57,2.125l5.296-0.088
					c0.461,1.045,1.032,2.031,1.7,2.941l-2.723,4.542c0.491,0.546,1.011,1.066,1.557,1.557l4.542-2.723
					c0.91,0.668,1.896,1.239,2.941,1.7l-0.088,5.296c0.693,0.226,1.401,0.418,2.124,0.57l2.573-4.632
					c0.558,0.06,1.124,0.093,1.698,0.093c0.574,0,1.14-0.033,1.698-0.093l2.573,4.632c0.723-0.152,1.431-0.344,2.124-0.57
					l-0.088-5.296c1.045-0.461,2.031-1.032,2.941-1.7l4.542,2.723c0.546-0.491,1.066-1.011,1.557-1.557l-2.723-4.542
					c0.668-0.91,1.239-1.896,1.7-2.941l5.296,0.088c0.226-0.693,0.418-1.401,0.57-2.125l-4.632-2.573
					c0.06-0.558,0.093-1.124,0.093-1.698c0-0.574-0.033-1.14-0.093-1.698l4.632-2.573c-0.152-0.723-0.344-1.431-0.57-2.125
					l-5.296,0.088c-0.461-1.045-1.032-2.03-1.7-2.941l2.723-4.542c-0.491-0.546-1.01-1.066-1.557-1.557l-4.542,2.723
					c-0.91-0.668-1.896-1.239-2.941-1.7l0.088-5.296c-0.693-0.226-1.401-0.418-2.125-0.57l-2.573,4.632
					c-0.558-0.06-1.124-0.093-1.698-0.093c-0.574,0-1.14,0.033-1.698,0.093l-2.573-4.632c-0.723,0.152-1.431,0.344-2.125,0.57
					l0.088,5.296c-1.045,0.461-2.031,1.032-2.941,1.7l-4.542-2.723c-0.546,0.491-1.066,1.01-1.557,1.557l2.723,4.542
					c-0.668,0.91-1.238,1.896-1.699,2.941l-5.296-0.088c-0.226,0.693-0.418,1.401-0.57,2.125l4.632,2.573
					c-0.06,0.558-0.093,1.124-0.093,1.698C216.3,182.433,216.333,182.999,216.393,183.557z M222.702,181.859
					c0-5.108,4.141-9.249,9.249-9.249s9.249,4.141,9.249,9.249c0,5.108-4.141,9.249-9.249,9.249
					C226.843,191.108,222.702,186.967,222.702,181.859z"/>
				<path style="opacity:0.5;fill:#263238;" d="M216.393,183.557l-4.632,2.573c0.152,0.723,0.345,1.431,0.57,2.125l5.296-0.088
					c0.461,1.045,1.032,2.031,1.7,2.941l-2.723,4.542c0.491,0.546,1.011,1.066,1.557,1.557l4.542-2.723
					c0.91,0.668,1.896,1.239,2.941,1.7l-0.088,5.296c0.693,0.226,1.401,0.418,2.124,0.57l2.573-4.632
					c0.558,0.06,1.124,0.093,1.698,0.093c0.574,0,1.14-0.033,1.698-0.093l2.573,4.632c0.723-0.152,1.431-0.344,2.124-0.57
					l-0.088-5.296c1.045-0.461,2.031-1.032,2.941-1.7l4.542,2.723c0.546-0.491,1.066-1.011,1.557-1.557l-2.723-4.542
					c0.668-0.91,1.239-1.896,1.7-2.941l5.296,0.088c0.226-0.693,0.418-1.401,0.57-2.125l-4.632-2.573
					c0.06-0.558,0.093-1.124,0.093-1.698c0-0.574-0.033-1.14-0.093-1.698l4.632-2.573c-0.152-0.723-0.344-1.431-0.57-2.125
					l-5.296,0.088c-0.461-1.045-1.032-2.03-1.7-2.941l2.723-4.542c-0.491-0.546-1.01-1.066-1.557-1.557l-4.542,2.723
					c-0.91-0.668-1.896-1.239-2.941-1.7l0.088-5.296c-0.693-0.226-1.401-0.418-2.125-0.57l-2.573,4.632
					c-0.558-0.06-1.124-0.093-1.698-0.093c-0.574,0-1.14,0.033-1.698,0.093l-2.573-4.632c-0.723,0.152-1.431,0.344-2.125,0.57
					l0.088,5.296c-1.045,0.461-2.031,1.032-2.941,1.7l-4.542-2.723c-0.546,0.491-1.066,1.01-1.557,1.557l2.723,4.542
					c-0.668,0.91-1.238,1.896-1.699,2.941l-5.296-0.088c-0.226,0.693-0.418,1.401-0.57,2.125l4.632,2.573
					c-0.06,0.558-0.093,1.124-0.093,1.698C216.3,182.433,216.333,182.999,216.393,183.557z M222.702,181.859
					c0-5.108,4.141-9.249,9.249-9.249s9.249,4.141,9.249,9.249c0,5.108-4.141,9.249-9.249,9.249
					C226.843,191.108,222.702,186.967,222.702,181.859z"/>
			</g>
		</g>
	</g>
</g>
</svg>
